<svg width="24" height="24" viewBox="0 0 24 24" fill="none" xmlns="http://www.w3.org/2000/svg">
<rect width="24" height="24" rx="4" fill="#A529D0"/>
<mask id="mask0_380_45" style="mask-type:alpha" maskUnits="userSpaceOnUse" x="2" y="2" width="20" height="20">
<rect x="2" y="2" width="20" height="20" fill="#D9D9D9"/>
</mask>
<g mask="url(#mask0_380_45)">
<path d="M6.16667 19.5C5.70833 19.5 5.31597 19.3368 4.98958 19.0104C4.66319 18.684 4.5 18.2917 4.5 17.8333V6.16667C4.5 5.70833 4.66319 5.31597 4.98958 4.98958C5.31597 4.66319 5.70833 4.5 6.16667 4.5H17.8333C18.2917 4.5 18.684 4.66319 19.0104 4.98958C19.3368 5.31597 19.5 5.70833 19.5 6.16667V17.8333C19.5 18.2917 19.3368 18.684 19.0104 19.0104C18.684 19.3368 18.2917 19.5 17.8333 19.5H6.16667ZM7 12.4792L9.75 9.72917C9.91667 9.5625 10.1111 9.47917 10.3333 9.47917C10.5556 9.47917 10.75 9.5625 10.9167 9.72917L13.6667 12.4792L16.4167 9.72917C16.5833 9.5625 16.7778 9.47917 17 9.47917C17.2222 9.47917 17.4167 9.5625 17.5833 9.72917L17.8333 9.97917V6.16667H6.16667V11.6458L7 12.4792ZM6.16667 17.8333H17.8333V12.3333L17 11.5L14.25 14.25C14.0833 14.4167 13.8889 14.5 13.6667 14.5C13.4444 14.5 13.25 14.4167 13.0833 14.25L10.3333 11.5L7.58333 14.25C7.41667 14.4167 7.22222 14.5 7 14.5C6.77778 14.5 6.58333 14.4167 6.41667 14.25L6.16667 14V17.8333ZM6.16667 17.8333V12.3333V14V6.16667V17.8333Z" fill="#FBF9F8"/>
</g>
</svg>
