<svg width="24" height="24" viewBox="0 0 24 24" fill="none" xmlns="http://www.w3.org/2000/svg">
<rect width="24" height="24" rx="4" fill="#EAFE99"/>
<path d="M9.08341 18.6667C8.73619 18.6667 8.44105 18.5451 8.198 18.3021C7.95494 18.059 7.83341 17.7639 7.83341 17.4167V7.83334H4.91675C4.56953 7.83334 4.27439 7.71182 4.03133 7.46876C3.78828 7.2257 3.66675 6.93057 3.66675 6.58334C3.66675 6.23612 3.78828 5.94098 4.03133 5.69793C4.27439 5.45487 4.56953 5.33334 4.91675 5.33334H13.2501C13.5973 5.33334 13.8924 5.45487 14.1355 5.69793C14.3786 5.94098 14.5001 6.23612 14.5001 6.58334C14.5001 6.93057 14.3786 7.2257 14.1355 7.46876C13.8924 7.71182 13.5973 7.83334 13.2501 7.83334H10.3334V17.4167C10.3334 17.7639 10.2119 18.059 9.96883 18.3021C9.72577 18.5451 9.43064 18.6667 9.08341 18.6667ZM16.5834 18.6667C16.2362 18.6667 15.9411 18.5451 15.698 18.3021C15.4549 18.059 15.3334 17.7639 15.3334 17.4167V12H14.0834C13.7362 12 13.4411 11.8785 13.198 11.6354C12.9549 11.3924 12.8334 11.0972 12.8334 10.75C12.8334 10.4028 12.9549 10.1076 13.198 9.86459C13.4411 9.62154 13.7362 9.50001 14.0834 9.50001H19.0834C19.4306 9.50001 19.7258 9.62154 19.9688 9.86459C20.2119 10.1076 20.3334 10.4028 20.3334 10.75C20.3334 11.0972 20.2119 11.3924 19.9688 11.6354C19.7258 11.8785 19.4306 12 19.0834 12H17.8334V17.4167C17.8334 17.7639 17.7119 18.059 17.4688 18.3021C17.2258 18.5451 16.9306 18.6667 16.5834 18.6667Z" fill="#1C1C1C"/>
</svg>
