<svg xmlns="http://www.w3.org/2000/svg" viewBox="0 0 20 24" fill="inherit">
    <path
        d="M8.41976 10.3807C8.56123 10.4601 8.74025 10.4085 8.81909 10.2669C8.89792 10.1253 8.84689 9.94638 8.70528 9.86755C7.16143 9.00812 5.96086 9.15862 5.22599 9.43611C4.42045 9.74027 3.98744 10.2568 3.96938 10.2786C3.86646 10.4033 3.88409 10.5871 4.00822 10.6906C4.06297 10.7362 4.12948 10.7585 4.1957 10.7585C4.27969 10.7585 4.36311 10.7227 4.42131 10.6533C4.47979 10.5839 5.88117 8.96741 8.41976 10.3807Z" />
    <path
        d="M6.61287 11.7886C6.88663 11.7886 7.10856 11.5667 7.10856 11.2929C7.10856 11.0192 6.88663 10.7972 6.61287 10.7972C6.33911 10.7972 6.11719 11.0192 6.11719 11.2929C6.11719 11.5667 6.33911 11.7886 6.61287 11.7886Z" />
    <path
        d="M3.41377 15.016C3.60831 15.016 3.76601 14.8583 3.76601 14.6638C3.76601 14.4692 3.60831 14.3115 3.41377 14.3115C3.21923 14.3115 3.06152 14.4692 3.06152 14.6638C3.06152 14.8583 3.21923 15.016 3.41377 15.016Z" />
    <path
        d="M4.33076 15.8966C4.5253 15.8966 4.683 15.7389 4.683 15.5444C4.683 15.3498 4.5253 15.1921 4.33076 15.1921C4.13622 15.1921 3.97852 15.3498 3.97852 15.5444C3.97852 15.7389 4.13622 15.8966 4.33076 15.8966Z" />
    <path
        d="M3.41377 16.7406C3.60831 16.7406 3.76601 16.5829 3.76601 16.3884C3.76601 16.1938 3.60831 16.0361 3.41377 16.0361C3.21923 16.0361 3.06152 16.1938 3.06152 16.3884C3.06152 16.5829 3.21923 16.7406 3.41377 16.7406Z" />
    <path
        d="M4.33076 17.6212C4.5253 17.6212 4.683 17.4635 4.683 17.269C4.683 17.0745 4.5253 16.9167 4.33076 16.9167C4.13622 16.9167 3.97852 17.0745 3.97852 17.269C3.97852 17.4635 4.13622 17.6212 4.33076 17.6212Z" />
    <path
        d="M4.33076 19.3458C4.5253 19.3458 4.683 19.1881 4.683 18.9936C4.683 18.7991 4.5253 18.6414 4.33076 18.6414C4.13622 18.6414 3.97852 18.7991 3.97852 18.9936C3.97852 19.1881 4.13622 19.3458 4.33076 19.3458Z" />
    <path
        d="M6.38594 15.8966C6.58047 15.8966 6.73818 15.7389 6.73818 15.5444C6.73818 15.3498 6.58047 15.1921 6.38594 15.1921C6.1914 15.1921 6.03369 15.3498 6.03369 15.5444C6.03369 15.7389 6.1914 15.8966 6.38594 15.8966Z" />
    <path
        d="M5.46845 16.7406C5.66299 16.7406 5.8207 16.5829 5.8207 16.3884C5.8207 16.1938 5.66299 16.0361 5.46845 16.0361C5.27392 16.0361 5.11621 16.1938 5.11621 16.3884C5.11621 16.5829 5.27392 16.7406 5.46845 16.7406Z" />
    <path
        d="M6.38594 17.6212C6.58047 17.6212 6.73818 17.4635 6.73818 17.269C6.73818 17.0745 6.58047 16.9167 6.38594 16.9167C6.1914 16.9167 6.03369 17.0745 6.03369 17.269C6.03369 17.4635 6.1914 17.6212 6.38594 17.6212Z" />
    <path
        d="M5.46845 18.4652C5.66299 18.4652 5.8207 18.3075 5.8207 18.113C5.8207 17.9184 5.66299 17.7607 5.46845 17.7607C5.27392 17.7607 5.11621 17.9184 5.11621 18.113C5.11621 18.3075 5.27392 18.4652 5.46845 18.4652Z" />
    <path
        d="M6.38594 19.3458C6.58047 19.3458 6.73818 19.1881 6.73818 18.9936C6.73818 18.7991 6.58047 18.6414 6.38594 18.6414C6.1914 18.6414 6.03369 18.7991 6.03369 18.9936C6.03369 19.1881 6.1914 19.3458 6.38594 19.3458Z" />
    <path
        d="M5.46845 20.1897C5.66299 20.1897 5.8207 20.032 5.8207 19.8375C5.8207 19.6429 5.66299 19.4852 5.46845 19.4852C5.27392 19.4852 5.11621 19.6429 5.11621 19.8375C5.11621 20.032 5.27392 20.1897 5.46845 20.1897Z" />
    <path
        d="M6.38594 21.0705C6.58047 21.0705 6.73818 20.9127 6.73818 20.7182C6.73818 20.5237 6.58047 20.366 6.38594 20.366C6.1914 20.366 6.03369 20.5237 6.03369 20.7182C6.03369 20.9127 6.1914 21.0705 6.38594 21.0705Z" />
    <path
        d="M7.52316 16.7407C7.71771 16.7407 7.87542 16.5829 7.87542 16.3884C7.87542 16.1938 7.71771 16.0361 7.52316 16.0361C7.32861 16.0361 7.1709 16.1938 7.1709 16.3884C7.1709 16.5829 7.32861 16.7407 7.52316 16.7407Z" />
    <path
        d="M8.44062 19.3458C8.63516 19.3458 8.79287 19.1881 8.79287 18.9936C8.79287 18.7991 8.63516 18.6414 8.44062 18.6414C8.24608 18.6414 8.08838 18.7991 8.08838 18.9936C8.08838 19.1881 8.24608 19.3458 8.44062 19.3458Z" />
    <path
        d="M7.52314 20.1897C7.71768 20.1897 7.87539 20.032 7.87539 19.8375C7.87539 19.6429 7.71768 19.4852 7.52314 19.4852C7.3286 19.4852 7.1709 19.6429 7.1709 19.8375C7.1709 20.032 7.3286 20.1897 7.52314 20.1897Z" />
    <path
        d="M8.44062 21.0705C8.63516 21.0705 8.79287 20.9127 8.79287 20.7182C8.79287 20.5237 8.63516 20.366 8.44062 20.366C8.24608 20.366 8.08838 20.5237 8.08838 20.7182C8.08838 20.9127 8.24608 21.0705 8.44062 21.0705Z" />
    <path
        d="M9.57783 16.7406C9.77237 16.7406 9.93007 16.5829 9.93007 16.3884C9.93007 16.1938 9.77237 16.0361 9.57783 16.0361C9.38329 16.0361 9.22559 16.1938 9.22559 16.3884C9.22559 16.5829 9.38329 16.7406 9.57783 16.7406Z" />
    <path
        d="M10.4953 19.3458C10.6898 19.3458 10.8476 19.1881 10.8476 18.9936C10.8476 18.7991 10.6898 18.6414 10.4953 18.6414C10.3008 18.6414 10.1431 18.7991 10.1431 18.9936C10.1431 19.1881 10.3008 19.3458 10.4953 19.3458Z" />
    <path
        d="M9.57783 20.1897C9.77237 20.1897 9.93007 20.032 9.93007 19.8375C9.93007 19.6429 9.77237 19.4852 9.57783 19.4852C9.38329 19.4852 9.22559 19.6429 9.22559 19.8375C9.22559 20.032 9.38329 20.1897 9.57783 20.1897Z" />
    <path
        d="M10.4953 21.0705C10.6898 21.0705 10.8476 20.9127 10.8476 20.7182C10.8476 20.5237 10.6898 20.366 10.4953 20.366C10.3008 20.366 10.1431 20.5237 10.1431 20.7182C10.1431 20.9127 10.3008 21.0705 10.4953 21.0705Z" />
    <path
        d="M11.633 16.7407C11.8276 16.7407 11.9853 16.5829 11.9853 16.3884C11.9853 16.1938 11.8276 16.0361 11.633 16.0361C11.4385 16.0361 11.2808 16.1938 11.2808 16.3884C11.2808 16.5829 11.4385 16.7407 11.633 16.7407Z" />
    <path
        d="M12.55 19.3458C12.7445 19.3458 12.9022 19.1881 12.9022 18.9936C12.9022 18.7991 12.7445 18.6414 12.55 18.6414C12.3555 18.6414 12.1978 18.7991 12.1978 18.9936C12.1978 19.1881 12.3555 19.3458 12.55 19.3458Z" />
    <path
        d="M11.633 20.1897C11.8275 20.1897 11.9852 20.032 11.9852 19.8375C11.9852 19.6429 11.8275 19.4852 11.633 19.4852C11.4385 19.4852 11.2808 19.6429 11.2808 19.8375C11.2808 20.032 11.4385 20.1897 11.633 20.1897Z" />
    <path
        d="M12.55 21.0705C12.7445 21.0705 12.9022 20.9127 12.9022 20.7182C12.9022 20.5237 12.7445 20.366 12.55 20.366C12.3555 20.366 12.1978 20.5237 12.1978 20.7182C12.1978 20.9127 12.3555 21.0705 12.55 21.0705Z" />
    <path
        d="M7.52314 21.9143C7.71768 21.9143 7.87539 21.7566 7.87539 21.5621C7.87539 21.3675 7.71768 21.2098 7.52314 21.2098C7.3286 21.2098 7.1709 21.3675 7.1709 21.5621C7.1709 21.7566 7.3286 21.9143 7.52314 21.9143Z" />
    <path
        d="M9.57783 21.9143C9.77237 21.9143 9.93007 21.7566 9.93007 21.5621C9.93007 21.3675 9.77237 21.2098 9.57783 21.2098C9.38329 21.2098 9.22559 21.3675 9.22559 21.5621C9.22559 21.7566 9.38329 21.9143 9.57783 21.9143Z" />
    <path
        d="M11.633 21.9143C11.8275 21.9143 11.9852 21.7566 11.9852 21.5621C11.9852 21.3675 11.8275 21.2098 11.633 21.2098C11.4385 21.2098 11.2808 21.3675 11.2808 21.5621C11.2808 21.7566 11.4385 21.9143 11.633 21.9143Z" />
    <path
        d="M13.6877 16.7406C13.8822 16.7406 14.0399 16.5829 14.0399 16.3884C14.0399 16.1938 13.8822 16.0361 13.6877 16.0361C13.4932 16.0361 13.3354 16.1938 13.3354 16.3884C13.3354 16.5829 13.4932 16.7406 13.6877 16.7406Z" />
    <path
        d="M14.6052 17.6212C14.7997 17.6212 14.9574 17.4635 14.9574 17.269C14.9574 17.0745 14.7997 16.9167 14.6052 16.9167C14.4106 16.9167 14.2529 17.0745 14.2529 17.269C14.2529 17.4635 14.4106 17.6212 14.6052 17.6212Z" />
    <path
        d="M16.6599 17.6212C16.8544 17.6212 17.0121 17.4635 17.0121 17.269C17.0121 17.0745 16.8544 16.9167 16.6599 16.9167C16.4653 16.9167 16.3076 17.0745 16.3076 17.269C16.3076 17.4635 16.4653 17.6212 16.6599 17.6212Z" />
    <path
        d="M13.6877 18.6651C13.8822 18.6651 14.0399 18.5074 14.0399 18.3128C14.0399 18.1183 13.8822 17.9606 13.6877 17.9606C13.4932 17.9606 13.3354 18.1183 13.3354 18.3128C13.3354 18.5074 13.4932 18.6651 13.6877 18.6651Z" />
    <path
        d="M14.6052 19.3459C14.7997 19.3459 14.9575 19.1882 14.9575 18.9936C14.9575 18.7991 14.7997 18.6414 14.6052 18.6414C14.4106 18.6414 14.2529 18.7991 14.2529 18.9936C14.2529 19.1882 14.4106 19.3459 14.6052 19.3459Z" />
    <path
        d="M13.6877 20.1897C13.8822 20.1897 14.0399 20.032 14.0399 19.8375C14.0399 19.6429 13.8822 19.4852 13.6877 19.4852C13.4932 19.4852 13.3354 19.6429 13.3354 19.8375C13.3354 20.032 13.4932 20.1897 13.6877 20.1897Z" />
    <path
        d="M13.6877 21.6209C13.8822 21.6209 14.0399 21.4632 14.0399 21.2686C14.0399 21.0741 13.8822 20.9164 13.6877 20.9164C13.4932 20.9164 13.3354 21.0741 13.3354 21.2686C13.3354 21.4632 13.4932 21.6209 13.6877 21.6209Z" />
    <path
        d="M16.6599 15.8966C16.8544 15.8966 17.0121 15.7389 17.0121 15.5444C17.0121 15.3498 16.8544 15.1921 16.6599 15.1921C16.4653 15.1921 16.3076 15.3498 16.3076 15.5444C16.3076 15.7389 16.4653 15.8966 16.6599 15.8966Z" />
    <path
        d="M15.7424 16.7406C15.9369 16.7406 16.0946 16.5829 16.0946 16.3884C16.0946 16.1938 15.9369 16.0361 15.7424 16.0361C15.5478 16.0361 15.3901 16.1938 15.3901 16.3884C15.3901 16.5829 15.5478 16.7406 15.7424 16.7406Z" />
    <path
        d="M15.7424 18.4652C15.9369 18.4652 16.0946 18.3075 16.0946 18.113C16.0946 17.9184 15.9369 17.7607 15.7424 17.7607C15.5478 17.7607 15.3901 17.9184 15.3901 18.113C15.3901 18.3075 15.5478 18.4652 15.7424 18.4652Z" />
    <path
        d="M15.7243 20.0613C15.9189 20.0613 16.0766 19.9036 16.0766 19.7091C16.0766 19.5145 15.9189 19.3568 15.7243 19.3568C15.5298 19.3568 15.3721 19.5145 15.3721 19.7091C15.3721 19.9036 15.5298 20.0613 15.7243 20.0613Z" />
    <path
        d="M14.8068 20.9053C15.0014 20.9053 15.1591 20.7476 15.1591 20.553C15.1591 20.3585 15.0014 20.2008 14.8068 20.2008C14.6123 20.2008 14.4546 20.3585 14.4546 20.553C14.4546 20.7476 14.6123 20.9053 14.8068 20.9053Z" />
    <path
        d="M12.2405 9.37701C10.3659 9.88384 9.95966 11.4032 9.79984 12.9695C9.73004 13.653 9.6717 14.3731 9.62168 15.1714C9.61623 15.2577 9.6492 15.3423 9.71183 15.4019C9.76673 15.4544 9.83954 15.4833 9.91465 15.4833C9.92511 15.4833 9.93572 15.4828 9.94633 15.4816L11.9703 15.2614C12.1316 15.244 12.248 15.0989 12.2305 14.9378C12.213 14.7767 12.0672 14.6612 11.907 14.6778L10.2303 14.8601C10.2747 14.2062 10.3252 13.6042 10.3838 13.0292C10.5485 11.4152 10.9422 10.3362 12.3938 9.94375C13.6193 9.61265 14.9817 9.90734 15.7848 10.6773C15.9017 10.7894 16.0875 10.7854 16.1997 10.6687C16.3119 10.5515 16.3081 10.3657 16.191 10.2536C15.245 9.34605 13.6572 8.99373 12.2405 9.37701Z" />
    <path
        d="M13.5709 11.7886C13.8446 11.7886 14.0666 11.5667 14.0666 11.2929C14.0666 11.0192 13.8446 10.7972 13.5709 10.7972C13.2971 10.7972 13.0752 11.0192 13.0752 11.2929C13.0752 11.5667 13.2971 11.7886 13.5709 11.7886Z" />
    <path
        d="M12.9856 17.2739C10.3249 17.771 7.95701 17.3281 7.9335 17.3232C7.77383 17.2939 7.62061 17.3971 7.58979 17.5562C7.55926 17.7153 7.66332 17.869 7.82242 17.8997C7.88663 17.9123 8.88309 18.0995 10.3163 18.0995C11.1311 18.0995 12.0875 18.039 13.0934 17.8512C13.2528 17.8214 13.3578 17.668 13.328 17.5087C13.2982 17.3496 13.1456 17.2458 12.9856 17.2739Z" />
    <path
        d="M19.4088 11.2023C19.3926 10.8121 19.2076 10.6209 19.0551 10.5292C18.8133 10.3835 18.5135 10.4014 18.2667 10.4572C18.3574 7.89506 18.3061 5.12327 16.4424 3.18446C14.3649 1.02355 10.8803 0.240376 7.5651 1.18753C4.80291 1.9773 1.84105 4.20271 1.81195 8.07961C1.8057 8.91589 1.81396 9.72673 1.83365 10.5209C1.62646 10.4325 1.25872 10.324 0.955099 10.4936C0.797575 10.5816 0.606081 10.776 0.588307 11.2023C0.558494 11.9181 0.672588 12.6199 0.782955 13.299C0.823375 13.5475 0.863795 13.7961 0.897049 14.0449C0.954383 14.4737 1.03293 15.0611 1.45075 15.316C1.57731 15.3931 1.72151 15.4315 1.88218 15.4315C1.96412 15.4315 2.05161 15.4183 2.14194 15.3982C2.15767 15.5482 2.17219 15.6992 2.18906 15.8483C2.50512 18.6422 3.4504 20.521 5.16396 21.7614C6.46788 22.7049 8.23834 23.2088 10.0876 23.2088C10.8344 23.2088 11.5941 23.1265 12.3411 22.958C14.3743 22.4987 15.9683 21.4527 16.7143 20.0879C17.4931 18.6628 17.8394 17.0444 18.0118 15.4223C18.0525 15.4266 18.0945 15.4344 18.1336 15.4344C18.3083 15.4344 18.4665 15.3917 18.6068 15.3062C19.0268 15.0502 19.1472 14.4832 19.2013 14.079C19.3378 13.0582 19.4476 12.1371 19.4088 11.2023ZM1.75634 14.8146C1.57774 14.7057 1.51597 14.2433 1.47899 13.9669C1.44502 13.7126 1.40374 13.4589 1.36246 13.2047C1.25194 12.525 1.1476 11.8828 1.17483 11.2269C1.18056 11.0888 1.21296 11.0223 1.24119 11.0065C1.31816 10.9621 1.5432 11.0217 1.69284 11.1042C1.74276 11.1318 1.79676 11.1382 1.84997 11.1354C1.8927 12.402 1.97035 13.6207 2.0823 14.8091C1.96969 14.8432 1.83893 14.8651 1.75634 14.8146ZM16.1991 19.8064C15.534 21.0233 14.0806 21.9632 12.2117 22.3852C9.77459 22.9359 7.2059 22.5142 5.50825 21.2856C3.93788 20.1492 3.06856 18.4005 2.77243 15.7824C2.50038 13.377 2.37826 10.8589 2.39905 8.08419C2.42571 4.53094 5.16855 2.48356 7.72649 1.75226C10.8356 0.863019 14.0905 1.58542 16.0192 3.59153C17.8102 5.45466 17.7668 8.28063 17.6654 10.8334C17.6621 10.8574 17.6597 10.8807 17.6625 10.9052C17.6594 10.9839 17.6563 11.0632 17.6531 11.1412C17.6436 11.3708 17.6345 11.5973 17.6266 11.8198L17.6137 12.1987C17.5244 14.8298 17.4321 17.5503 16.1991 19.8064ZM18.6193 14.001C18.5604 14.4416 18.4535 14.712 18.3013 14.8048C18.2417 14.841 18.1618 14.8509 18.067 14.8405C18.1407 13.9503 18.1716 13.0657 18.2003 12.2185L18.2134 11.8404C18.2211 11.6188 18.2303 11.3935 18.2396 11.165C18.2409 11.1343 18.2421 11.103 18.2433 11.0723C18.4325 11.0099 18.6546 10.9732 18.7525 11.0323C18.7945 11.0575 18.818 11.1232 18.8223 11.2269C18.8591 12.1139 18.7522 13.008 18.6193 14.001Z" />
</svg>