<svg xmlns="http://www.w3.org/2000/svg" viewBox="0 0 22 22" fill="inherit">
    <path
        d="M9.28081 12.1239C9.55456 12.1239 9.77647 11.902 9.77647 11.6282C9.77647 11.3545 9.55456 11.1326 9.28081 11.1326C9.00707 11.1326 8.78516 11.3545 8.78516 11.6282C8.78516 11.902 9.00707 12.1239 9.28081 12.1239Z" />
    <path
        d="M15.4268 11.9698C15.7006 11.9698 15.9225 11.7479 15.9225 11.4742C15.9225 11.2004 15.7006 10.9785 15.4268 10.9785C15.1531 10.9785 14.9312 11.2004 14.9312 11.4742C14.9312 11.7479 15.1531 11.9698 15.4268 11.9698Z" />
    <path
        d="M12.4633 18.2819C13.1491 18.2819 13.9307 18.1813 14.7067 17.8709C14.8572 17.8104 14.9305 17.6395 14.8701 17.489C14.8101 17.3388 14.6388 17.2657 14.4886 17.3256C12.5478 18.1025 10.4904 17.3999 10.4698 17.3927C10.3168 17.3394 10.1494 17.4199 10.0958 17.5724C10.0421 17.7252 10.1223 17.8926 10.2751 17.9465C10.3339 17.9672 11.2489 18.2819 12.4633 18.2819Z" />
    <path
        d="M13.2363 2.46044C12.3092 1.25041 11.1724 0.53166 10.33 0.141647C7.97711 0.069192 5.41467 1.75753 3.95212 4.40577C2.45686 7.11306 1.01306 17.6484 0.952427 18.0956C0.943254 18.1624 0.957444 18.2303 0.992561 18.288C2.13809 20.1679 4.46612 20.3222 5.19756 20.3222C5.32211 20.3222 5.40052 20.3176 5.41872 20.3164C5.51289 20.3104 5.59846 20.2594 5.64863 20.1794C5.6988 20.0994 5.7074 20.0002 5.67185 19.9128C5.42976 19.3177 5.53081 14.895 5.65479 12.1355C6.28819 11.7434 7.11838 11.1511 8.02307 10.4705C8.74855 10.2966 10.0357 10.1466 10.9831 10.9137C11.0376 10.9576 11.1028 10.9791 11.1677 10.9791C11.2531 10.9791 11.338 10.9418 11.396 10.8701C11.498 10.7443 11.4786 10.5594 11.3526 10.4573C10.6112 9.85723 9.73166 9.71479 8.97602 9.74289C10.9265 8.23361 13.0181 6.50658 14.1872 5.53022C14.2385 4.84458 14.1529 3.65674 13.2363 2.46044Z" />
    <path
        d="M20.0213 7.88507C19.0365 5.28356 17.2034 0.441156 13.2555 0.03294C12.821 -0.0115653 12.365 -0.0168687 11.8945 0.017424C12.5821 0.478638 13.3039 1.10049 13.9355 1.92499C14.5266 2.69635 14.9198 3.60984 15.0389 4.57617C15.1535 5.50629 15.0051 6.32335 15.3631 7.21637C15.6916 8.03606 16.0406 8.82904 16.5209 9.57448C15.9723 9.53438 15.4223 9.57742 14.8979 9.70742C14.0413 9.91984 13.2194 10.2859 13.007 11.5163C12.8331 12.5231 13.0173 13.6233 13.1952 14.6871L13.2091 14.7708L11.5364 14.8322C11.3744 14.8379 11.2478 14.9741 11.2537 15.1361C11.2596 15.2946 11.3897 15.419 11.547 15.419C11.5506 15.419 11.5542 15.419 11.5579 15.4187L13.5638 15.3453C13.648 15.3425 13.7267 15.3032 13.78 15.2384C13.8335 15.1733 13.8562 15.0885 13.8429 15.0053L13.7743 14.5905C13.6044 13.5749 13.4287 12.5245 13.5855 11.6161C13.7158 10.8616 14.0962 10.5112 15.0392 10.2773C15.6638 10.1223 16.3298 10.1113 16.9796 10.2293C17.3733 10.7435 17.7013 11.0616 17.8604 11.2024C17.9558 12.4696 17.8125 14.965 17.665 16.9462C17.6575 16.9611 17.6466 16.9733 17.6416 16.9897C17.2159 18.3849 15.6284 20.094 14.3397 20.9402C13.6503 21.3926 12.5444 21.5354 11.3811 21.3224C9.87972 21.0466 8.8202 20.0493 7.68771 18.8714C7.57534 18.7544 7.38972 18.7512 7.27276 18.8633C7.1558 18.9757 7.15222 19.1615 7.26459 19.2784C8.42431 20.4847 9.6038 21.593 11.2752 21.8997C11.6609 21.9705 12.0429 22.0052 12.4109 22.0052C13.2904 22.0052 14.089 21.8071 14.6619 21.431C15.6373 20.7904 16.7887 19.6804 17.5395 18.5204C17.4739 19.2933 17.425 19.8022 17.4233 19.8202C17.4147 19.9085 17.4465 19.996 17.5097 20.0579C17.5729 20.1204 17.661 20.1525 17.7489 20.1401L20.6672 19.805C20.7965 19.7904 20.9005 19.6921 20.9229 19.5639C21.2953 17.4268 20.8102 9.96887 20.0213 7.88507Z" />
</svg>