<svg xmlns="http://www.w3.org/2000/svg" viewBox="0 0 20 26" fill="inherit">
    <path
        d="M10.4625 18.9787C7.78872 19.6469 5.60144 18.9397 5.57936 18.9327C5.426 18.8815 5.25973 18.9648 5.20842 19.1186C5.15739 19.2722 5.24024 19.4384 5.39389 19.4897C5.45839 19.5112 6.51906 19.8566 8.08141 19.8566C8.82646 19.8566 9.6856 19.7781 10.6047 19.5483C10.762 19.509 10.8578 19.3496 10.8182 19.1923C10.779 19.0352 10.619 18.9387 10.4625 18.9787Z" />
    <path
        d="M4.85651 13.574C5.13027 13.574 5.35219 13.3521 5.35219 13.0783C5.35219 12.8046 5.13027 12.5826 4.85651 12.5826C4.58276 12.5826 4.36084 12.8046 4.36084 13.0783C4.36084 13.3521 4.58276 13.574 4.85651 13.574Z" />
    <path
        d="M11.0211 13.6383C11.2948 13.6383 11.5167 13.4164 11.5167 13.1426C11.5167 12.8689 11.2948 12.647 11.0211 12.647C10.7473 12.647 10.5254 12.8689 10.5254 13.1426C10.5254 13.4164 10.7473 13.6383 11.0211 13.6383Z" />
    <path
        d="M18.5375 13.2195C18.9424 11.8809 19.3203 10.3243 19.2306 8.7307C19.1819 7.86725 18.991 7.07934 18.6636 6.38862C18.4429 5.9235 18.1353 5.56058 17.8377 5.20969C17.6356 4.97119 17.4447 4.74586 17.2862 4.5022L17.2692 4.47468C16.2112 2.66236 14.3621 1.40962 12.0622 0.947508C9.28639 0.389652 6.20442 1.06691 4.018 2.71468C2.25126 4.04611 1.7215 5.5021 1.83731 8.70633C1.84133 8.82243 1.89522 8.9318 1.98896 9.0145C2.43903 9.41168 4.21207 9.26519 4.22985 9.26361C5.94757 9.10996 7.61311 8.43658 9.2239 7.78555C9.63498 7.61928 10.0409 7.45517 10.4405 7.30295C11.6806 6.8308 12.8161 6.47634 13.9015 6.22278C14.119 7.17194 14.6287 8.50265 15.1232 9.79395C15.4065 10.533 15.6938 11.284 15.9039 11.9084L14.3551 11.5642C14.1182 11.4193 13.5529 11.2501 12.1763 11.0913C11.3819 10.9994 10.1943 10.97 9.04616 11.3527C9.02043 11.3613 8.99791 11.3759 8.97342 11.3869C8.94565 11.3914 8.91826 11.3992 8.89222 11.4119C8.58864 11.5591 8.183 11.7168 8.0626 11.7168C7.93905 11.7168 7.49959 11.559 7.16619 11.4116C7.13609 11.3983 7.1042 11.3923 7.07208 11.3896C7.04576 11.3776 7.02137 11.362 6.99362 11.3527C5.84522 10.9697 4.65698 10.999 3.86377 11.0911C3.51146 11.1318 3.21768 11.1731 2.96328 11.2146C2.94445 10.9999 2.92406 10.7863 2.90286 10.5754L2.86301 10.1724C2.84782 10.0111 2.70735 9.89371 2.54309 9.9079C2.3817 9.92338 2.2633 10.0666 2.27878 10.228L2.31892 10.634C2.34183 10.8622 2.36362 11.0934 2.38329 11.3253C1.53513 11.5187 1.51643 11.7028 1.50765 11.8168C1.5051 11.8502 1.49066 12.0603 1.4927 12.365C1.23171 12.4175 0.899228 12.6161 0.779222 13.1852C0.759155 13.2798 0.698381 13.5681 0.921123 15.8067C1.01142 16.7146 1.15304 17.3249 1.5796 17.5618C1.68911 17.6226 1.80951 17.653 1.94023 17.653C2.04015 17.653 2.14683 17.6329 2.25845 17.5973C2.41542 18.3219 2.63662 18.9672 2.84983 19.4852L2.96105 19.7574C3.21873 20.3904 3.52296 21.1344 3.90973 21.8158C3.90948 21.831 3.90487 21.8453 3.90706 21.8608C3.91021 21.8832 4.22326 24.1069 4.25909 24.9632C4.26568 25.121 4.39554 25.2445 4.55206 25.2445C4.55636 25.2445 4.56038 25.2444 4.56468 25.2442C4.72664 25.2375 4.85249 25.1008 4.84561 24.9388C4.82519 24.4499 4.7224 23.5658 4.63221 22.856C4.89753 23.1579 5.1928 23.4139 5.5253 23.5945C6.24369 23.9843 7.13581 24.1803 8.18788 24.1803C8.53131 24.1803 8.89222 24.1593 9.26919 24.1173C10.1364 24.021 11.8994 23.4918 13.9631 21.0299C14.0672 20.9056 14.0508 20.7205 13.9267 20.6163C13.8026 20.5123 13.6174 20.5285 13.513 20.6527C11.5089 23.0438 9.83221 23.4642 9.2044 23.534C7.79428 23.6902 6.65105 23.5374 5.80566 23.0784C4.70371 22.4803 3.98217 20.7084 3.50486 19.5359L3.39278 19.2616C3.0099 18.3316 2.59835 16.9715 2.63386 15.4922C2.7635 15.5654 2.90693 15.6203 3.06712 15.6503C3.57567 15.7456 4.04495 15.7931 4.47237 15.7931C5.28909 15.7931 5.95176 15.6179 6.44974 15.2768L6.06195 17.3127C6.04532 17.3995 6.06911 17.4894 6.12616 17.5571C6.18206 17.6231 6.26405 17.6611 6.35033 17.6611C6.35234 17.6611 6.35435 17.6611 6.35635 17.6611L8.75376 17.6123C8.91573 17.609 9.04444 17.4748 9.04129 17.3127C9.03785 17.1507 8.90484 17.0287 8.74172 17.0252L6.70638 17.0667L7.21939 14.3739C7.32705 14.1536 7.41776 13.9322 7.48757 13.7144C7.56034 13.5338 7.84986 13.2579 8.07493 13.2579C8.17985 13.2579 8.41807 13.5057 8.56485 13.7677C8.5682 13.7738 8.57359 13.7778 8.57732 13.7835C8.64816 13.9932 8.73416 14.2054 8.83976 14.4166C9.3013 15.3394 10.2103 15.8226 11.4206 15.8226C11.8687 15.8226 12.3583 15.7562 12.8815 15.6215C14.3537 15.2424 14.5304 13.0978 14.5393 12.2065L16.1041 12.5542C16.1775 12.8218 16.2215 13.0409 16.2218 13.187L16.1804 13.7346C16.0259 14.9186 15.4714 16.6203 15.465 16.6402C15.4145 16.7941 15.4982 16.9599 15.6524 17.0105C15.6828 17.0204 15.7135 17.0253 15.7439 17.0253C15.8674 17.0253 15.9821 16.9468 16.0228 16.8232C16.0478 16.747 16.5093 15.3294 16.7124 14.1355C16.9463 13.9721 17.8779 13.3745 18.3884 13.8214C18.7665 14.1525 18.36 15.2991 18.2066 15.7307L18.176 15.8179C17.9257 16.5295 17.4596 17.8543 16.6882 18.2123C16.6065 18.2504 16.4015 18.1304 16.0773 17.8581C16.0403 17.827 16.0065 17.7986 15.9764 17.7745C15.8964 17.7107 15.7892 17.6928 15.6934 17.7275C15.5974 17.762 15.5263 17.844 15.5054 17.9439C15.4638 18.1442 14.4943 22.8729 15.3239 24.9849C15.3692 25.1006 15.4801 25.1713 15.5971 25.1713C15.6329 25.1713 15.6693 25.1647 15.7043 25.1508C15.8554 25.0916 15.9296 24.9212 15.8703 24.7702C15.2488 23.1885 15.7677 19.7895 15.9907 18.5382C16.2645 18.7331 16.605 18.8981 16.9353 18.7449C17.9314 18.2828 18.4311 16.8616 18.7298 16.0124L18.7602 15.9269C19.0024 15.2442 19.4531 13.9731 18.7748 13.3796C18.6989 13.3131 18.6189 13.2628 18.5375 13.2195ZM2.08414 12.0136C2.16566 11.9881 2.28484 11.9593 2.42291 11.9297C2.4343 12.1758 2.44073 12.4215 2.43244 12.6645C2.41868 13.0678 2.33956 13.4491 2.25614 13.8527C2.25469 13.8597 2.25334 13.867 2.25189 13.874C2.08648 13.2332 2.06283 12.4851 2.08414 12.0136ZM1.86455 17.0485C1.70315 16.9588 1.58218 16.5213 1.50535 15.7485C1.3021 13.7038 1.34338 13.3554 1.35371 13.3062C1.39375 13.1167 1.4585 13.0234 1.51893 12.9774C1.57053 13.6202 1.71389 14.3973 2.07792 14.9529C2.01168 15.67 2.04992 16.3663 2.15 17.0139C2.05543 17.0533 1.93548 17.0883 1.86455 17.0485ZM3.17548 15.0732C2.98049 15.0367 2.81928 14.9331 2.68523 14.7849C2.71991 14.511 2.77587 14.237 2.83091 13.9719C2.91576 13.5618 3.00377 13.1378 3.01896 12.6844C3.02901 12.3948 3.02052 12.1056 3.00527 11.8176C3.384 11.7511 3.76081 11.6941 3.93114 11.6744C4.95474 11.5559 5.96122 11.6362 6.77075 11.8987C6.78285 11.9027 6.79585 11.9057 6.80786 11.9097C6.88841 11.9365 6.95434 12.0108 7.00365 12.1302C7.12362 12.4196 7.12187 12.9512 6.90891 13.5875C6.84812 13.7692 6.77276 13.9582 6.67484 14.154C6.07972 15.3444 4.4437 15.3115 3.17548 15.0732ZM12.7353 15.053C11.9567 15.2531 10.0713 15.567 9.36494 14.154C9.26288 13.9499 9.18432 13.7528 9.12249 13.5642C8.91718 12.9381 8.91759 12.4161 9.03613 12.1302C9.08544 12.0108 9.15137 11.9365 9.23192 11.9097C9.2516 11.9031 9.27349 11.8988 9.2934 11.8924C9.85283 11.7142 10.5022 11.6207 11.1876 11.6207C11.4897 11.6207 11.7985 11.6385 12.1089 11.6745C12.4435 11.7131 13.5758 11.8957 13.9528 12.0128C13.9737 12.8947 13.7971 14.7795 12.7353 15.053Z" />
    <path
        d="M16.7626 16.4402C16.6319 16.5364 16.6041 16.7201 16.7004 16.8507C16.7578 16.9288 16.8469 16.9701 16.9369 16.9701C16.9974 16.9701 17.0585 16.9515 17.1107 16.9129C17.3601 16.7292 17.5134 16.4851 17.5544 16.207C17.61 15.8296 17.4512 15.4849 17.3454 15.3053C17.4891 14.8552 17.7901 14.8612 17.8563 14.8697C18.0157 14.8909 18.1624 14.7824 18.1868 14.6237C18.2115 14.4635 18.1017 14.3135 17.9414 14.2887C17.6181 14.2392 16.9441 14.3826 16.7417 15.2919C16.7234 15.3745 16.7426 15.4624 16.7927 15.5306C16.8633 15.6268 17.1938 16.1224 16.7626 16.4402Z" />
</svg>