<svg xmlns="http://www.w3.org/2000/svg" viewBox="0 0 18 24">
    <path
        d="M6.00405 13.0263C6.256 13.0263 6.46024 12.822 6.46024 12.5701C6.46024 12.3181 6.256 12.1139 6.00405 12.1139C5.7521 12.1139 5.54785 12.3181 5.54785 12.5701C5.54785 12.822 5.7521 13.0263 6.00405 13.0263Z" />
    <path
        d="M12.0856 13.1226C12.3375 13.1226 12.5418 12.9183 12.5418 12.6664C12.5418 12.4145 12.3375 12.2102 12.0856 12.2102C11.8336 12.2102 11.6294 12.4145 11.6294 12.6664C11.6294 12.9183 11.8336 13.1226 12.0856 13.1226Z" />
    <path
        d="M16.9904 11.5482C17.0117 10.6255 16.9228 9.64979 16.7101 8.49115C16.4625 7.14151 16.1079 5.58734 15.3585 4.29418C14.7347 3.2176 13.8286 2.18244 12.6655 1.21751C12.6119 1.17308 12.5451 1.14527 12.4749 1.14986C9.23441 1.18784 6.49988 0.199982 6.47236 0.189949C6.39467 0.161712 6.30867 0.167445 6.23586 0.205715L6.02 0.317945C5.91049 0.374705 5.80099 0.431322 5.69205 0.489086C4.81456 0.953632 4.03626 1.59892 3.37893 2.40704C2.63617 3.32065 2.07114 4.40598 1.69991 5.63278C1.31176 6.91375 1.2507 8.24948 1.19164 9.54136L1.17559 9.8835C1.16871 10.0274 1.15896 10.1768 1.14864 10.3294C1.11971 10.7695 1.09161 11.2582 1.12799 11.724C0.867672 11.8768 0.613756 12.237 0.522847 13.0323C0.359625 14.4524 1.21612 16.1991 2.48645 17.08C2.61633 18.1623 2.8254 19.4983 3.10802 20.0088C3.49746 20.711 5.56613 22.1481 6.46896 22.7537C6.79164 23.1695 7.1479 23.4809 7.52386 23.5657C8.24197 23.7277 8.85171 23.8278 9.47837 23.8278C10.0807 23.8278 10.6984 23.7353 11.4423 23.5164C11.9186 23.3763 12.3028 23.0118 12.6095 22.5588C13.7724 21.6213 15.1983 20.3658 15.4502 19.6619C15.6678 19.0544 15.7077 18.3874 15.7464 17.7424C15.7538 17.6165 15.7613 17.4924 15.7699 17.3708C15.7825 17.197 15.7914 17.0181 15.8007 16.8397C16.309 16.5786 16.6589 16.0354 16.9492 15.5343C17.303 14.9238 17.4922 14.2004 17.4968 13.4423C17.4998 12.918 17.4992 12.0578 16.9904 11.5482ZM1.10593 13.0992C1.17788 12.472 1.35218 12.2286 1.47974 12.2108C1.47974 12.2108 1.48007 12.2106 1.48025 12.2106C1.48025 12.2106 1.48067 12.2107 1.48089 12.2107C1.48634 12.21 1.49236 12.2088 1.49867 12.2075C1.61479 12.2216 1.92509 12.5335 2.25454 13.4655C2.27912 14.1702 2.30155 14.819 2.3108 15.1109C2.31187 15.1457 2.31374 15.1875 2.31596 15.2323C2.31641 15.2412 2.31689 15.2504 2.31739 15.2597C2.32252 15.3569 2.33004 15.4737 2.34013 15.6079C2.34016 15.6084 2.3402 15.609 2.34025 15.6095C2.34548 15.679 2.35139 15.753 2.35795 15.8309C2.3581 15.8326 2.35824 15.8343 2.35838 15.836C2.36927 15.9652 2.38173 16.1039 2.39622 16.2523C1.54023 15.4322 0.986671 14.1384 1.10593 13.0992ZM15.1601 17.7072C15.124 18.3111 15.0867 18.9355 14.8975 19.464C14.7812 19.7887 14.1742 20.4428 13.2457 21.2586C13.5449 20.429 13.668 19.68 13.6783 19.615C13.7039 19.4549 13.5946 19.3046 13.4347 19.2791C13.2716 19.2548 13.1242 19.3629 13.0987 19.523C12.9643 20.3674 12.3754 22.6299 11.2766 22.9531C9.88285 23.3634 8.96265 23.2884 7.65286 22.993C6.84875 22.8117 5.86864 20.6152 5.43949 19.2733C5.39018 19.1189 5.22564 19.0335 5.07055 19.083C4.91632 19.1323 4.83118 19.2975 4.88049 19.4519C4.94194 19.6445 5.25059 20.5818 5.71603 21.5157C4.69634 20.7816 3.80863 20.0616 3.62173 19.7241C3.43396 19.3854 3.22182 18.3223 3.05384 16.8805C2.95952 16.0705 2.90649 15.386 2.89732 15.0924C2.88785 14.7934 2.86463 14.1213 2.83941 13.3976L2.74968 10.839L2.74681 10.4059C3.55062 9.6725 3.67849 8.31556 3.75646 7.49024C3.77194 7.32469 3.78713 7.16516 3.80433 7.05021C4.33094 6.87247 6.23012 6.29699 8.75538 6.29699C11.2551 6.29699 13.4917 6.77156 14.1674 6.92952C14.3021 9.22516 14.9382 10.118 15.2163 10.4028L15.2341 11.2972C15.2458 11.8789 15.2582 12.4761 15.2665 13.0777C15.2857 14.5232 15.2725 15.6521 15.2246 16.6305C15.2132 16.8657 15.2008 17.1002 15.1845 17.3287C15.1756 17.4525 15.1679 17.5791 15.1601 17.7072ZM16.9097 13.4389C16.9057 14.0949 16.7437 14.7177 16.4413 15.24C16.2996 15.4844 16.0935 15.84 15.8344 16.0942C15.8356 16.0572 15.8366 16.0187 15.8377 15.9813C15.8394 15.9283 15.8411 15.8751 15.8425 15.8211C15.8445 15.7475 15.8463 15.6721 15.848 15.5966C15.8492 15.5443 15.8505 15.4928 15.8515 15.4396C15.8539 15.3191 15.8558 15.1964 15.8573 15.0709C15.8581 15.0086 15.8585 14.9438 15.8591 14.8801C15.8598 14.8066 15.8605 14.7332 15.8609 14.6578C15.8613 14.5893 15.8615 14.5191 15.8616 14.4489C15.8618 14.3729 15.8619 14.296 15.8619 14.218C15.8618 14.1484 15.8617 14.0781 15.8615 14.0069C15.8612 13.9217 15.8607 13.8345 15.8601 13.7468C15.8597 13.6802 15.8593 13.6143 15.8587 13.5463C15.8576 13.4105 15.8561 13.2716 15.8543 13.1299C16.2188 12.205 16.4886 11.9497 16.5376 11.9286C16.5379 11.9288 16.5383 11.9289 16.5386 11.9291C16.5439 11.9324 16.5537 11.9377 16.5637 11.9431C16.9163 12.2736 16.9122 13.0013 16.9097 13.4389Z" />
    <path
        d="M7.453 11.9042C7.60378 11.9619 7.77407 11.8865 7.83197 11.7349C7.89017 11.5835 7.8142 11.4138 7.66284 11.3558L7.42232 11.2627C6.47775 10.8948 5.3027 10.4371 4.24575 10.826C3.87308 10.9632 3.53281 11.2668 3.30921 11.4831C3.19253 11.5959 3.18966 11.7818 3.30233 11.8981C3.35995 11.9576 3.43649 11.9876 3.51331 11.9876C3.58699 11.9876 3.66038 11.9601 3.71742 11.905C3.90261 11.7256 4.1801 11.4757 4.44871 11.377C5.2961 11.0642 6.31263 11.4605 7.20933 11.8099L7.453 11.9042Z" />
    <path
        d="M13.5377 10.7161C12.641 10.4366 11.7225 10.7289 11.1096 11.0233C8.72594 12.1689 8.79302 14.4508 8.84692 16.2844C8.85122 16.4367 8.8558 16.5868 8.85867 16.7343L8.86068 16.8296C8.86326 16.9195 8.90683 17.0032 8.97878 17.0569C9.0301 17.095 9.09173 17.115 9.15423 17.115C9.17974 17.115 9.20554 17.1117 9.23048 17.1049L10.8146 16.6784C10.9711 16.6361 11.064 16.4751 11.0219 16.3186C10.9797 16.1619 10.8183 16.0686 10.6621 16.1113L9.43889 16.4409C9.43717 16.3833 9.43545 16.3253 9.43373 16.2672C9.38241 14.5168 9.32393 12.5329 11.3642 11.5525C11.7878 11.3488 12.612 11.0423 13.3628 11.2765C13.7323 11.3918 14.0462 11.626 14.2956 11.9726C14.3902 12.104 14.574 12.1343 14.7053 12.0392C14.8368 11.9445 14.8667 11.761 14.7721 11.6294C14.4467 11.1774 14.0313 10.87 13.5377 10.7161Z" />
    <path
        d="M11.5292 18.4975C11.5123 18.5014 9.76621 18.8608 7.52217 18.5019C7.36192 18.4758 7.21142 18.5852 7.1859 18.7453C7.1601 18.9054 7.26932 19.0561 7.42928 19.0816C8.21848 19.2078 8.94347 19.2503 9.5621 19.2503C10.7925 19.2503 11.6017 19.0823 11.6516 19.0717C11.8099 19.0379 11.9111 18.882 11.8772 18.7235C11.8437 18.5653 11.6892 18.4624 11.5292 18.4975Z" />
</svg>