<svg xmlns="http://www.w3.org/2000/svg" viewBox="0 0 18 22" fill="inherit">
    <path
        d="M7.90476 11.5929C8.93686 12.2125 8.4352 13.511 7.72735 15.0186C7.65891 15.1646 7.59292 15.3053 7.53288 15.4383C7.49919 15.5131 7.49817 15.5982 7.53013 15.6737C7.56208 15.7492 7.62435 15.8077 7.70128 15.8352L9.48164 16.4737C9.51173 16.4846 9.54226 16.4901 9.57234 16.491C9.69585 16.4945 9.81301 16.4193 9.85698 16.2967C9.91184 16.144 9.83236 15.9759 9.67993 15.9214L8.20131 15.391C8.22025 15.3505 8.2395 15.3095 8.25877 15.2679C8.86366 13.9796 9.77774 12.0325 8.20718 11.0894C7.12518 10.4396 5.11191 10.2412 3.95284 10.9945C3.81694 11.083 3.77844 11.2648 3.86688 11.4007C3.95504 11.5363 4.13661 11.5748 4.27308 11.4867C5.22204 10.869 6.97331 11.0332 7.90476 11.5929Z" />
    <path
        d="M10.3414 11.1964C10.2151 11.2983 10.1952 11.483 10.2968 11.6092C10.399 11.7355 10.5834 11.7545 10.7096 11.6538C11.4574 11.0507 13.1433 11.2044 13.9033 11.7637C13.9533 11.8004 14.011 11.819 14.0686 11.8207C14.1617 11.8233 14.2544 11.7818 14.3138 11.7012C14.4099 11.5706 14.3819 11.3869 14.2513 11.2908C13.3037 10.5939 11.3137 10.413 10.3414 11.1964Z" />
    <path
        d="M11.4972 17.2791C10.1157 17.6589 8.49221 17.6392 6.67196 17.2209C6.51445 17.1831 6.35614 17.2829 6.32005 17.4411C6.28366 17.5992 6.38238 17.7566 6.54021 17.793C7.42568 17.9968 8.26902 18.11 9.0662 18.1329C9.99405 18.1596 10.8589 18.0637 11.653 17.8451C11.8094 17.802 11.9012 17.6406 11.8581 17.4842C11.815 17.3278 11.6542 17.2354 11.4972 17.2791Z" />
    <path
        d="M16.2771 5.38942C16.1356 5.22246 15.7048 4.91467 15.5091 4.77884C15.2902 4.18435 14.0314 1.09586 11.2932 0.337414C9.59095 -0.134562 7.67732 -0.10816 5.90581 0.411015C3.67271 1.06547 1.82283 3.07282 1.0782 5.64969C0.34298 8.19425 1.26414 10.9247 2.16259 13.0328C2.08038 15.6903 2.63457 17.8701 3.81384 19.5088C4.93096 21.0612 6.67433 21.9387 8.65096 21.9956C9.15442 22.01 9.67291 21.971 10.2002 21.8766C12.8554 21.4013 14.988 19.5847 15.6328 17.2485C15.9105 16.2429 16.0516 15.1559 16.0601 14.0177C16.7172 13.4026 16.8363 12.0468 16.916 11.1324C16.9273 11.0002 16.9379 10.8812 16.9488 10.78C16.9719 10.5678 16.9996 10.3498 17.0278 10.1281C17.2278 8.55794 17.4545 6.77864 16.2771 5.38942ZM15.0669 17.0922C14.482 19.2117 12.5308 20.8631 10.0966 21.299C7.72759 21.7232 5.5569 20.9257 4.2906 19.1657C3.17843 17.6207 2.66009 15.5412 2.74969 12.9845C2.77958 12.1347 2.8424 11.2868 2.90327 10.4669C2.95662 9.74885 3.00709 9.07091 3.03418 8.41838C3.03816 8.31985 3.04804 8.22549 3.06294 8.13615C3.25265 6.99475 4.31664 6.54556 5.44306 6.06978C5.80537 5.91702 6.17987 5.75887 6.51807 5.57674C6.98909 5.32329 7.44681 5.06401 7.88685 4.80106C7.53621 5.33587 7.06713 5.96019 6.72898 6.38007C6.65849 6.46781 6.64413 6.58813 6.69254 6.6899C6.74066 6.79166 6.83562 6.85003 6.95556 6.85778C8.05374 6.86528 9.28706 6.35213 10.0774 5.95329L9.30332 7.57145C9.26031 7.66112 9.26589 7.76624 9.31765 7.8509C9.36941 7.93585 9.46053 7.98865 9.55967 7.99151C10.5354 8.01957 13.4576 7.59688 14.4236 7.45202C14.5265 8.25368 14.8736 9.83382 15.1693 11.1108C15.3683 11.9691 15.4747 12.9266 15.477 13.8802C15.4799 15.0163 15.3419 16.097 15.0669 17.0922Z" />
    <path
        d="M6.05524 12.9209C6.32899 12.9209 6.55091 12.699 6.55091 12.4252C6.55091 12.1515 6.32899 11.9296 6.05524 11.9296C5.78149 11.9296 5.55957 12.1515 5.55957 12.4252C5.55957 12.699 5.78149 12.9209 6.05524 12.9209Z" />
    <path
        d="M11.9078 13.0892C12.1815 13.0892 12.4034 12.8673 12.4034 12.5936C12.4034 12.3198 12.1815 12.0979 11.9078 12.0979C11.634 12.0979 11.4121 12.3198 11.4121 12.5936C11.4121 12.8673 11.634 13.0892 11.9078 13.0892Z" />
</svg>