<svg xmlns="http://www.w3.org/2000/svg" viewBox="0 0 28 24" fill="inherit">
    <path
        d="M12.9897 18.2068C12.8453 18.0934 12.6365 18.1181 12.5231 18.262C12.4089 18.4063 12.4333 18.6157 12.5777 18.7298C12.6411 18.78 13.6742 19.5754 15.3251 19.5754C16.1416 19.5754 17.1097 19.3805 18.1853 18.8043C18.3476 18.7174 18.4087 18.5157 18.3219 18.3536C18.2351 18.1918 18.0325 18.1302 17.8712 18.2173C15.0181 19.7448 13.0713 18.2702 12.9897 18.2068Z" />
    <path
        d="M11.748 12.8844C12.1158 12.8844 12.414 12.5862 12.414 12.2185C12.414 11.8507 12.1158 11.5525 11.748 11.5525C11.3802 11.5525 11.082 11.8507 11.082 12.2185C11.082 12.5862 11.3802 12.8844 11.748 12.8844Z" />
    <path
        d="M18.4853 12.8844C18.8531 12.8844 19.1513 12.5862 19.1513 12.2185C19.1513 11.8507 18.8531 11.5525 18.4853 11.5525C18.1175 11.5525 17.8193 11.8507 17.8193 12.2185C17.8193 12.5862 18.1175 12.8844 18.4853 12.8844Z" />
    <path
        d="M26.1627 11.763L25.7861 11.4414C25.1933 10.9279 24.7657 10.4946 24.6639 9.59114C24.6265 9.26076 24.6516 8.92209 24.6779 8.56359C24.7186 8.01339 24.7605 7.44449 24.5722 6.87023C24.2741 5.96169 23.6383 5.23557 22.5718 4.58522C21.618 4.00381 21.048 3.22225 20.4536 2.33517C19.8345 1.412 18.5117 1.42639 17.7843 1.51471C17.8505 2.56277 17.6626 3.63354 17.5451 4.17536C18.397 4.99964 19.2482 5.85628 19.8741 6.81414C20.4148 7.64163 20.6446 8.63218 20.7748 9.65894C20.4957 9.44884 20.1586 9.26587 19.7665 9.17492C18.5432 8.89055 16.6032 9.80414 16.5212 9.84299C16.3551 9.92201 16.2845 10.1205 16.3632 10.2865C16.4419 10.4525 16.6406 10.5234 16.8067 10.4446C17.3081 10.2069 18.7896 9.63195 19.6162 9.82364C20.1868 9.95597 20.62 10.3671 20.8797 10.6815C20.893 10.8431 20.9058 11.0048 20.9182 11.1658C20.9634 11.7544 21.0106 12.3629 21.0961 12.934C21.206 13.6667 20.8236 16.5714 20.4337 18.4353C20.1872 19.6127 18.9584 21.1295 17.9809 22.0709C17.4164 22.6143 16.9394 22.9764 16.3063 23.102C15.7115 23.2201 15.0787 23.1734 14.3728 23.1053C14.0481 23.074 13.7242 23.0169 13.4154 22.9099C13.0998 22.8006 12.8156 22.6343 12.5506 22.4324C12.3235 22.2593 12.1126 22.0661 11.9071 21.8681C11.4771 21.4536 11.0775 21.0078 10.695 20.5494C10.4085 20.2059 10.1314 19.8543 9.86446 19.4954C9.86067 19.4903 9.81921 19.4388 9.82096 19.4367C11.1207 17.8451 10.3835 16.7367 9.88925 15.993C9.81479 15.8812 9.7439 15.7748 9.68471 15.6729C9.2945 14.9988 9.36994 14.2755 9.93738 13.2544C10.5708 12.114 10.3464 11.4765 9.93933 10.319C9.92608 10.2814 9.91102 10.2375 9.8973 10.1984C10.2883 9.9238 10.8205 9.82836 11.4826 9.91583L11.614 9.93323C12.4289 10.0401 13.1329 10.1324 13.7019 10.6462C15.1002 11.9093 14.6856 13.7544 13.9474 16.2229C13.9162 16.3268 13.9377 16.4395 14.005 16.5245C14.0684 16.6049 14.1647 16.6514 14.2664 16.6514C14.2726 16.6514 14.2788 16.6512 14.285 16.6509L16.158 16.5468C16.3414 16.5366 16.4822 16.3795 16.4718 16.1958C16.4617 16.0124 16.3111 15.8692 16.1209 15.8818L14.7204 15.9597C15.3226 13.9124 15.8406 11.6809 14.1481 10.1519C13.4252 9.49913 12.5485 9.38418 11.7005 9.2728L11.5704 9.25573C10.8596 9.16198 10.2551 9.24378 9.76475 9.49921C9.88049 8.47828 11.1691 6.7533 12.1274 5.71928C13.9581 5.6212 15.8471 4.76708 16.8457 4.24536C16.9408 3.84627 17.2319 2.48071 17.0962 1.28888C16.1731 0.60902 14.7137 -0.170649 13.0451 0.0329313C12.4754 0.102681 11.9066 0.261043 11.3545 0.503622C10.7038 0.789778 10.2554 1.25852 9.82161 1.71181C9.72926 1.80806 9.63626 1.90545 9.54001 2.00203C8.96998 2.57613 8.30239 3.04601 7.55579 3.39866C7.32882 3.50581 7.09664 3.60531 6.86479 3.70465C5.78716 4.16689 4.67245 4.6449 4.07478 5.85065C3.75838 6.48848 3.61108 7.21574 3.61108 8.1394C3.61108 8.32638 3.62018 8.51921 3.62994 8.7148C3.65238 9.17639 3.67547 9.65358 3.56296 10.0701C3.43809 10.5316 3.17079 10.6859 2.76627 10.9193C2.59263 11.0195 2.39622 11.133 2.20242 11.2824C0.933273 12.2605 0.213007 14.2296 0.489407 15.9647C0.585658 16.5696 0.915388 17.0087 1.23471 17.4334C1.40673 17.6625 1.56931 17.8789 1.69223 18.1159C2.0587 18.8226 2.1052 19.5776 2.15398 20.3769C2.16569 20.5684 2.17772 20.7609 2.19398 20.9542C2.30844 22.3253 3.42184 23.1341 4.07544 23.494C4.68645 23.8304 5.26624 24 5.80375 24C5.90683 24 6.00829 23.9938 6.10812 23.9813C6.5471 23.9265 6.94089 23.7727 7.322 23.6239C7.51261 23.5495 7.69449 23.4807 7.87872 23.4227C8.20896 23.2761 8.41548 23.0711 8.50564 22.7946C8.62303 22.4348 8.61002 21.7465 7.87968 20.511C7.34541 19.6064 7.90114 18.7034 8.26989 18.3524C8.40256 18.2257 8.61328 18.2304 8.74074 18.3639C8.86691 18.4966 8.86236 18.7066 8.73034 18.8336C8.70237 18.8604 8.05592 19.4999 8.45329 20.1722C9.14104 21.3362 9.37158 22.2881 9.13876 23.0012C9.10313 23.1104 9.055 23.2118 8.99893 23.3081C9.2108 23.3263 9.43085 23.3579 9.674 23.4174C10.8121 23.6968 11.7414 23.61 12.4611 23.1592C12.4848 23.172 12.5054 23.1832 12.5323 23.1978C13.0149 23.4597 13.1583 23.5339 13.2304 23.5579C13.5355 23.6599 13.8782 23.7267 14.3091 23.7683C14.7207 23.808 15.1106 23.8408 15.4901 23.8408C15.8104 23.8408 16.1232 23.8174 16.4364 23.7553C17.28 23.5877 17.8826 23.0838 18.3812 22.6086C19.1235 22.3758 19.8272 22.506 20.6367 22.6593C21.4317 22.8095 22.3331 22.9799 23.4497 22.8437C24.7599 22.684 25.4915 21.9797 25.4567 20.9112C25.447 20.6047 25.3494 20.2787 25.2554 19.9636C25.0503 19.2773 24.9511 18.8409 25.298 18.567C25.9315 18.0668 26.3828 17.59 26.7617 17.0206C28.0214 15.1266 27.7977 13.1611 26.1627 11.763ZM16.1339 3.0421C16.2068 3.21087 16.1294 3.40695 15.9603 3.47995C15.0407 3.87764 13.7631 4.17485 13.7091 4.18721C13.6841 4.19306 13.6587 4.19582 13.634 4.19582C13.4825 4.19582 13.3456 4.09177 13.3098 3.9378C13.2685 3.75862 13.3803 3.57978 13.5592 3.53848C13.5719 3.53555 14.8323 3.24208 15.6963 2.86862C15.864 2.79611 16.0608 2.87317 16.1339 3.0421ZM10.3861 3.12909C10.445 3.05543 11.8709 1.3333 14.483 1.73245C14.6648 1.76026 14.79 1.93016 14.762 2.11193C14.7344 2.29338 14.5646 2.4189 14.3829 2.39094C12.1392 2.04836 10.9165 3.53214 10.9045 3.54726C10.8388 3.62872 10.7422 3.67115 10.645 3.67115C10.5718 3.67115 10.4977 3.64709 10.4362 3.59734C10.2931 3.4819 10.2707 3.27216 10.3861 3.12909ZM3.94277 12.9042C4.28908 12.4483 4.55638 12.1969 4.77132 11.995C5.19697 11.5945 5.39143 11.412 5.71335 9.87404C5.75075 9.69422 5.92472 9.57878 6.10746 9.61634C6.28729 9.65406 6.40272 9.83047 6.365 10.0106C6.01512 11.683 5.76343 11.9763 5.22722 12.4802C5.0204 12.6748 4.78563 12.8954 4.47281 13.3071C3.5698 14.4954 4.48517 16.0836 4.4946 16.0995C4.5876 16.2579 4.53524 16.4619 4.37688 16.5553C4.32388 16.5868 4.26535 16.6018 4.20779 16.6018C4.0943 16.6018 3.98374 16.5437 3.92163 16.439C3.87383 16.3585 2.76596 14.4524 3.94277 12.9042ZM5.52898 22.2273C5.47598 22.3559 5.35176 22.4338 5.22104 22.4338C5.17877 22.4338 5.13585 22.4257 5.09422 22.4086C4.92416 22.3385 4.84319 22.1439 4.9131 21.974C4.99602 21.7726 4.80384 21.5261 4.47704 21.1441C4.35932 21.0066 4.23771 20.8642 4.12682 20.7108C3.64556 20.0442 3.74442 19.0635 3.74897 19.0221C3.76848 18.8395 3.92912 18.706 4.11544 18.7266C4.29819 18.7461 4.43054 18.91 4.41103 19.0928C4.4094 19.112 4.33884 19.8669 4.66662 20.3208C4.76417 20.4557 4.87538 20.5852 4.98334 20.7113C5.35338 21.1441 5.77286 21.6347 5.52898 22.2273ZM7.65238 16.2574C7.51515 16.7164 7.22607 17.046 6.97113 17.3367C6.7614 17.5758 6.56336 17.8017 6.46256 18.0756C6.30225 18.5123 6.22583 18.9055 6.23591 19.244C6.24112 19.4279 6.09641 19.5812 5.91269 19.5866C5.90944 19.5867 5.90619 19.5867 5.90261 19.5867C5.72344 19.5867 5.57549 19.444 5.56996 19.2635C5.5576 18.8398 5.64768 18.3628 5.83758 17.8461C5.98098 17.4557 6.22974 17.172 6.47037 16.8977C6.70092 16.6348 6.91879 16.3865 7.01439 16.0665C7.06707 15.8903 7.25339 15.7896 7.42866 15.843C7.6049 15.8956 7.70506 16.0812 7.65238 16.2574ZM8.67635 8.63024C8.67018 8.64455 8.06828 10.0807 8.46076 11.1603C8.82301 12.1563 8.67148 13.0135 8.04519 13.5118C7.83447 13.6796 7.56393 13.7809 7.27745 13.888C6.63458 14.1286 6.02747 14.3558 6.01122 15.3033C6.00796 15.4853 5.85968 15.6306 5.67824 15.6306C5.67629 15.6306 5.67433 15.6306 5.67271 15.6306C5.48866 15.6274 5.34201 15.4758 5.34526 15.292C5.36932 13.8911 6.37704 13.5139 7.04397 13.2643C7.27973 13.176 7.50215 13.0928 7.63026 12.9908C8.1616 12.568 7.98666 11.8049 7.83512 11.3879C7.35159 10.0584 8.03478 8.4366 8.06405 8.36815C8.13624 8.19954 8.33199 8.12118 8.50076 8.19337C8.66985 8.26556 8.74822 8.46115 8.67635 8.63024ZM8.29037 6.32816C7.80911 6.27679 7.35549 6.22834 6.88984 6.37483C5.93317 6.67561 6.02162 7.57473 6.03495 7.67618C6.05837 7.85779 5.93122 8.02542 5.74977 8.0503C5.73449 8.05241 5.71921 8.05339 5.70392 8.05339C5.54101 8.05339 5.39891 7.93437 5.37517 7.76853C5.29876 7.23378 5.475 6.12135 6.69018 5.73944C7.28851 5.55165 7.85821 5.61245 8.36094 5.66595C9.02039 5.73602 9.54002 5.79146 10.0392 5.36142C10.1783 5.24127 10.3884 5.25655 10.509 5.39621C10.629 5.53539 10.6134 5.74562 10.4743 5.86577C9.75594 6.4849 9.00966 6.40523 8.29037 6.32816ZM21.6418 20.1517C21.381 20.52 21.0568 20.9785 21.0282 21.4365C21.0171 21.6129 20.8704 21.7487 20.6962 21.7487C20.689 21.7487 20.6822 21.7485 20.675 21.748C20.4916 21.7365 20.3521 21.5784 20.3635 21.3949C20.4038 20.7482 20.7888 20.2042 21.0981 19.767C21.2044 19.617 21.4125 19.5814 21.5621 19.6875C21.7123 19.7937 21.7481 20.0015 21.6418 20.1517ZM21.9952 7.93421C22.2329 7.62838 22.3058 7.20321 22.1848 6.82471C22.0713 6.46929 21.8021 6.21159 21.4271 6.09908C20.1957 5.72968 19.494 4.39386 19.4647 4.33727C19.3805 4.17404 19.4446 3.97373 19.6075 3.88918C19.7697 3.80415 19.971 3.86821 20.0562 4.03112C20.0621 4.0425 20.6607 5.17379 21.6184 5.46108C22.2017 5.63619 22.6394 6.05924 22.8192 6.62212C23.0059 7.20679 22.8917 7.86625 22.5207 8.34295C22.455 8.42734 22.3568 8.47156 22.2577 8.47156C22.1864 8.47156 22.1143 8.44863 22.0534 8.40148C21.9084 8.28849 21.8821 8.07924 21.9952 7.93421ZM23.1106 21.4238C23.0455 21.5139 22.9438 21.5618 22.8404 21.5618C22.7727 21.5618 22.7048 21.5413 22.6456 21.4988C22.4967 21.3911 22.4632 21.183 22.5708 21.0339C23.0078 20.4288 23.0999 19.9738 22.4423 19.0253C21.8144 18.1194 22.311 17.0577 22.3324 17.0129C22.4118 16.8469 22.6101 16.7769 22.7766 16.8565C22.9418 16.9359 23.0121 17.1339 22.9334 17.2996C22.9278 17.3119 22.5857 18.0634 22.9896 18.6458C23.7492 19.7413 23.7821 20.4943 23.1106 21.4238ZM24.7469 17.4711C24.6838 17.5727 24.5749 17.6285 24.4636 17.6285C24.4038 17.6285 24.343 17.6124 24.2884 17.5784C24.132 17.4815 24.0842 17.2762 24.1811 17.1199C24.5189 16.5756 24.3586 16.4444 23.692 16.0288C23.4224 15.8605 23.1164 15.6697 22.855 15.4082C22.0564 14.6096 22.495 13.6464 22.8384 13.2486C22.959 13.1092 23.1694 13.0944 23.308 13.2142C23.4468 13.3341 23.4624 13.5437 23.3434 13.6828C23.2829 13.7544 22.777 14.3886 23.3258 14.9374C23.5336 15.145 23.7935 15.3069 24.0445 15.4637C24.6373 15.8334 25.4492 16.3397 24.7469 17.4711ZM25.6196 14.8512C25.5562 14.9513 25.4483 15.0063 25.3377 15.0063C25.2769 15.0063 25.2154 14.9897 25.1602 14.9549C25.0047 14.8567 24.9582 14.651 25.0564 14.4954C25.4557 13.8635 25.0828 12.9709 24.1495 12.3249C23.1327 11.6209 23.186 10.4371 23.3561 9.90933C23.4127 9.73455 23.6006 9.63797 23.7752 9.69471C23.9502 9.75097 24.0461 9.93811 23.9905 10.1127C23.9752 10.1617 23.6712 11.1837 24.5287 11.7773C25.7708 12.6374 26.2196 13.9013 25.6196 14.8512Z" />
</svg>