<svg xmlns="http://www.w3.org/2000/svg" viewBox="0 0 22 24" fill="inherit">
    <path
        d="M15.4074 8.89921C15.4679 8.749 15.3954 8.57786 15.2449 8.51709C13.8924 7.9707 11.8573 8.58044 11.7715 8.60624C11.6164 8.65354 11.5291 8.81751 11.5763 8.9726C11.6148 9.09931 11.7312 9.18072 11.8571 9.18072C11.8853 9.18072 11.9141 9.17671 11.9425 9.16811C11.9615 9.16209 13.8657 8.59305 15.0253 9.06176C15.1744 9.12167 15.3467 9.04972 15.4074 8.89921Z" />
    <path
        d="M7.45417 11.1776C7.72793 11.1776 7.94985 10.9557 7.94985 10.682C7.94985 10.4082 7.72793 10.1863 7.45417 10.1863C7.18042 10.1863 6.9585 10.4082 6.9585 10.682C6.9585 10.9557 7.18042 11.1776 7.45417 11.1776Z" />
    <path
        d="M13.3365 11.1565C13.6103 11.1565 13.8322 10.9346 13.8322 10.6608C13.8322 10.3871 13.6103 10.1652 13.3365 10.1652C13.0627 10.1652 12.8408 10.3871 12.8408 10.6608C12.8408 10.9346 13.0627 11.1565 13.3365 11.1565Z" />
    <path
        d="M8.44305 16.2227C8.28481 16.1889 8.12886 16.2915 8.0956 16.4497C8.0625 16.6086 8.16426 16.7642 8.32293 16.7972C9.08576 16.9569 9.81834 17.0366 10.5438 17.0366C11.362 17.0366 12.1709 16.9351 13.0031 16.7313C13.1605 16.6926 13.2568 16.5337 13.2184 16.3761C13.1797 16.2187 13.0203 16.1224 12.8632 16.1608C11.3615 16.5289 9.99808 16.5475 8.44305 16.2227Z" />
    <path
        d="M20.2213 9.09618C19.73 6.1263 18.6475 1.98824 14.9352 0.35022C13.8702 -0.119772 12.8867 0.000556739 12.2548 0.180226C12.2496 0.181444 12.2458 0.184992 12.2405 0.185959C11.8926 0.250173 11.6286 0.622269 11.4335 1.32375C11.2059 2.14054 11.173 2.76121 11.3278 3.26388C12.134 3.75387 12.8384 4.2163 13.4643 4.67031C15.2213 5.94513 16.001 8.25969 16.4838 10.1334C17.1354 12.6632 17.0086 14.9973 16.1171 16.883C16.0976 16.9242 16.0755 16.9632 16.0535 17.0022L16.007 17.0865C14.6852 19.5728 11.5797 20.3846 10.6582 20.3846C10.6384 20.3846 10.6186 20.3822 10.5989 20.3805L10.509 20.3731C8.84777 20.239 7.2797 18.0096 6.83866 17.3296C5.92605 15.9223 5.42338 14.1229 5.42338 12.263C5.42338 11.1623 5.63241 10.0719 5.92261 9.0118C6.50021 8.82862 7.08824 8.81009 7.64033 8.81984C8.20492 8.82987 8.63592 8.91214 8.90453 9.28051C9.19421 9.67755 9.34887 10.4174 9.34715 10.9122C9.34371 11.9548 9.15494 12.6772 8.70472 14.0034C8.67763 14.0828 8.68609 14.1702 8.72766 14.243C8.76923 14.3161 8.84003 14.3677 8.92231 14.3849L10.8426 14.7886C10.8629 14.7929 10.8831 14.7949 10.9032 14.7949C11.0391 14.7949 11.161 14.7 11.1901 14.5618C11.2235 14.403 11.1219 14.2473 10.9632 14.2141L9.36593 13.8784C9.75508 12.7008 9.93095 11.9437 9.93425 10.9139C9.93625 10.33 9.76325 9.46111 9.37868 8.93422C8.94209 8.33565 8.26025 8.24392 7.65108 8.23274C7.16177 8.22414 6.6434 8.23639 6.11394 8.35257C6.23751 7.94664 6.36899 7.5457 6.50154 7.15143C6.527 7.07568 6.55251 6.99978 6.57826 6.92388C6.96443 5.78531 7.4028 4.64444 8.49474 4.01098C8.87515 3.79053 9.32407 3.60821 9.86759 3.45398C9.91576 3.44022 9.98929 3.41642 10.0787 3.38747C10.22 3.34146 10.3477 3.30158 10.4618 3.26786C10.5539 3.2407 10.6337 3.21905 10.7079 3.19999C10.557 2.4644 10.7176 1.70573 10.8679 1.16608C10.9168 0.990279 11.0172 0.631836 11.2193 0.30077C10.1556 0.0996007 9.14933 0.267588 8.2214 0.804876C5.35529 2.46383 3.9757 7.27068 3.51574 9.26016C3.14264 10.8732 2.94828 12.5351 2.76037 14.1424C2.60027 15.5112 2.43486 16.9265 2.1598 18.2948C1.81336 20.0185 1.43295 21.7182 1.02875 23.347L0.939453 23.7074L10.6174 23.8114L10.689 23.6174C10.9949 22.7897 10.9164 21.6505 10.8263 20.9641C11.8582 20.9088 13.6472 20.3468 15.0661 19.1403C14.0656 21.1019 12.6865 23.494 12.6668 23.5279L12.4062 23.9789L20.8612 23.8037L20.8827 23.5394C21.2591 18.8839 21.0366 14.0246 20.2213 9.09618Z" />
</svg>