<svg xmlns="http://www.w3.org/2000/svg" viewBox="0 0 22 22" fill="inherit">
    <path
        d="M13.4598 17.0041C11.4424 17.6397 8.99838 17.0068 8.97384 17C8.80941 16.9567 8.64244 17.0544 8.5992 17.2177C8.55581 17.3813 8.65306 17.549 8.81659 17.5924C8.88691 17.6111 10.0077 17.9025 11.3907 17.9025C12.1081 17.9025 12.896 17.8241 13.6441 17.5885C13.8054 17.5378 13.8952 17.3657 13.8443 17.2043C13.7934 17.043 13.6223 16.9531 13.4598 17.0041Z" />
    <path
        d="M9.0861 10.2672C9.24514 10.3252 9.42094 10.2431 9.47884 10.0839C9.53659 9.92486 9.4546 9.74906 9.29556 9.69116C7.9942 9.21837 7.06778 9.33702 5.90571 9.70133C5.74427 9.75205 5.65435 9.92396 5.70507 10.0854C5.74622 10.2163 5.86696 10.3002 5.99727 10.3002C6.02779 10.3002 6.05861 10.2956 6.08913 10.286C7.3124 9.90227 8.06886 9.89718 9.0861 10.2672Z" />
    <path
        d="M12.9063 10.2672C13.9231 9.8973 14.6793 9.90209 15.9031 10.286C15.9337 10.2956 15.9648 10.3002 15.995 10.3002C16.1255 10.3002 16.2464 10.2163 16.2874 10.0854C16.3379 9.92393 16.2482 9.75202 16.0869 9.7013C14.9252 9.33654 13.9982 9.21819 12.6969 9.69113C12.538 9.74903 12.4557 9.92483 12.5137 10.0839C12.5715 10.2429 12.7465 10.3248 12.9063 10.2672Z" />
    <path
        d="M7.82924 11.8869C8.08308 11.8869 8.28885 11.6811 8.28885 11.4273C8.28885 11.1734 8.08308 10.9677 7.82924 10.9677C7.5754 10.9677 7.36963 11.1734 7.36963 11.4273C7.36963 11.6811 7.5754 11.8869 7.82924 11.8869Z" />
    <path
        d="M14.15 11.9137C14.4039 11.9137 14.6097 11.708 14.6097 11.4541C14.6097 11.2003 14.4039 10.9945 14.15 10.9945C13.8962 10.9945 13.6904 11.2003 13.6904 11.4541C13.6904 11.708 13.8962 11.9137 14.15 11.9137Z" />
    <path
        d="M21.0556 12.047C21.0179 11.8257 20.9805 11.6068 20.9449 11.3909C20.4572 8.43703 19.6103 6.06727 18.3568 4.14649C16.8562 1.84734 14.106 0.474609 10.9998 0.474609C7.89404 0.474609 5.14379 1.84734 3.64329 4.14634C2.38981 6.06711 1.54328 8.43673 1.05538 11.3909C1.01977 11.6067 0.98252 11.8252 0.944966 12.0464C0.583342 14.1717 0.173544 16.5805 0.7955 18.6991C1.06885 19.6294 1.73 20.3647 2.60945 20.7163C3.13445 20.9261 3.67337 20.9987 4.16845 20.9987C4.60877 20.9987 5.01438 20.9412 5.34398 20.8715C5.98832 20.7352 6.61632 20.4731 7.25485 20.0884C8.46672 21.0322 9.85534 21.5253 11.2101 21.5253C11.8785 21.5253 12.5389 21.4056 13.1646 21.1616C13.7585 20.9301 14.3334 20.601 14.8755 20.1861C16.2332 20.9868 18.0155 21.2227 19.2985 20.7516C20.2543 20.4007 20.9135 19.6909 21.2047 18.6991C21.8271 16.5808 21.4171 14.1721 21.0556 12.047ZM12.9419 20.5907C11.2387 21.2552 9.24064 20.8768 7.59641 19.5797L7.59615 19.5794C7.08731 19.1781 6.63876 18.7095 6.26262 18.1871C5.59085 17.2536 5.28832 15.9684 5.05746 14.837C4.7515 13.3371 4.75315 10.9621 4.75464 9.05375V8.89456C5.57065 8.67507 8.48742 7.93866 10.8895 7.93866C13.3097 7.93866 16.3017 8.68629 17.1067 8.89964C17.2105 10.4275 17.4373 13.9176 17.2419 15.2031C16.9861 16.888 15.9759 18.559 14.5395 19.6731C14.0329 20.0661 13.4952 20.3749 12.9419 20.5907Z" />
    <path
        d="M10.2646 15.528C10.4961 15.6996 10.8148 15.7593 11.1165 15.7593C11.3618 15.7593 11.5958 15.7198 11.7627 15.669C11.9246 15.6194 12.0159 15.4483 11.9662 15.2864C11.9171 15.1244 11.7466 15.0331 11.5838 15.0828C11.2855 15.1742 10.8203 15.1772 10.6295 15.0356C10.5725 14.9934 10.5492 14.9433 10.5494 14.863C10.5495 14.7425 10.6246 14.5842 10.7008 14.4239C10.8629 14.0823 11.0563 13.5859 11.2916 12.9061C11.347 12.7464 11.2623 12.5718 11.1023 12.5164C10.9416 12.4609 10.7678 12.5457 10.7126 12.7057C10.4877 13.3547 10.2975 13.8444 10.1373 14.1818C10.048 14.37 9.93667 14.6043 9.93652 14.8622C9.93623 15.1384 10.0496 15.3687 10.2646 15.528Z" />
</svg>