<svg xmlns="http://www.w3.org/2000/svg" viewBox="0 0 18 26" fill="inherit">
    <path
        d="M8.13558 2.2785C8.24989 2.29152 8.37571 2.30364 8.51336 2.31695C9.7442 2.43597 11.7837 2.63704 14.6209 4.12871C14.4421 3.24199 13.8994 2.16967 13.2562 1.77579C12.0018 1.00736 9.83222 0.443908 8.2831 0.913555C7.68044 1.09618 7.22316 1.72311 6.86719 2.30239C7.26689 2.25322 7.71213 2.23034 8.13558 2.2785Z" />
    <path
        d="M13.833 14.8268C13.932 14.8268 14.0293 14.7789 14.0882 14.6903C14.182 14.5496 14.144 14.3592 14.0032 14.2654C13.5671 13.9747 12.9781 13.6385 12.2874 13.6191C11.5996 13.5984 10.8773 13.8868 10.3946 14.1314C10.2437 14.2078 10.1832 14.3922 10.2597 14.5431C10.3361 14.6941 10.5205 14.7545 10.6714 14.6781C11.0908 14.4655 11.703 14.215 12.2701 14.2316C12.8046 14.2467 13.2954 14.5301 13.6633 14.7753C13.7155 14.8102 13.7746 14.8268 13.833 14.8268Z" />
    <path
        d="M11.9791 16.0338C12.233 16.0338 12.4388 15.8281 12.4388 15.5742C12.4388 15.3204 12.233 15.1146 11.9791 15.1146C11.7253 15.1146 11.5195 15.3204 11.5195 15.5742C11.5195 15.8281 11.7253 16.0338 11.9791 16.0338Z" />
    <path
        d="M7.6967 14.1314C7.21389 13.8869 6.49588 13.5971 5.80391 13.6191C5.11328 13.6386 4.52424 13.9747 4.08811 14.2654C3.94732 14.3593 3.90931 14.5496 4.00313 14.6904C4.06222 14.7789 4.15933 14.8268 4.25837 14.8268C4.31672 14.8268 4.37582 14.8102 4.42804 14.7753C4.79594 14.5301 5.28668 14.2467 5.82126 14.2316C6.38562 14.2155 7.00039 14.4658 7.41991 14.6781C7.57088 14.7545 7.7552 14.6941 7.83166 14.5431C7.90811 14.3922 7.84766 14.2078 7.6967 14.1314Z" />
    <path
        d="M6.11244 16.0338C6.36628 16.0338 6.57206 15.8281 6.57206 15.5742C6.57206 15.3204 6.36628 15.1146 6.11244 15.1146C5.85861 15.1146 5.65283 15.3204 5.65283 15.5742C5.65283 15.8281 5.85861 16.0338 6.11244 16.0338Z" />
    <path
        d="M8.64525 18.762C8.71931 18.4999 8.80624 18.2394 8.89601 17.9732C9.08303 17.4196 9.1927 17.026 9.27289 16.4112C9.29474 16.2433 9.17639 16.0895 9.00867 16.0677C8.8429 16.0463 8.68715 16.164 8.66515 16.3319C8.59109 16.8996 8.49339 17.2503 8.3155 17.7772C8.22304 18.0509 8.13357 18.3194 8.05562 18.595C8.04949 18.6164 8.04066 18.6418 8.03108 18.6697C7.97797 18.8253 7.90511 19.0383 7.96974 19.2327C8.06624 19.5219 8.53529 19.6631 9.04623 19.6631C9.29384 19.6631 9.55133 19.6301 9.78099 19.5644C9.94363 19.5178 10.0379 19.3483 9.99135 19.1855C9.94482 19.0231 9.77561 18.9281 9.61252 18.9752C9.17894 19.0988 8.75358 19.0509 8.57194 18.99C8.58406 18.9468 8.60067 18.898 8.61099 18.8679C8.62446 18.8286 8.63658 18.7925 8.64525 18.762Z" />
    <path
        d="M6.96735 20.9634C6.92605 21.1275 7.02555 21.2939 7.18953 21.3353C7.25386 21.3515 8.28128 21.6057 9.3853 21.6057C9.94935 21.6057 10.5333 21.5394 11.019 21.341C11.1758 21.277 11.2509 21.0982 11.1868 20.9415C11.1229 20.7847 10.9435 20.7099 10.7874 20.7737C9.53806 21.2839 7.36114 20.7466 7.3393 20.741C7.17517 20.7 7.00864 20.7994 6.96735 20.9634Z" />
    <path
        d="M16.0746 6.29894C14.7521 4.44739 12.4389 3.6873 10.2804 3.23329C8.82233 2.92662 7.3804 2.72592 5.91882 3.10726C5.44456 3.25078 4.97338 3.46144 4.51862 3.74894C4.93906 6.23162 6.74755 7.87158 7.26892 8.29862C8.04446 8.86202 9.51109 9.88919 10.2558 10.2397C11.227 10.6966 12.1808 11.3097 13.0911 12.062C13.5278 12.4229 14.0712 12.8719 14.304 13.4485C14.4915 13.9131 14.4819 14.4367 14.4717 14.9912C14.4678 15.2052 14.4641 15.4176 14.4716 15.6253C14.5458 17.6794 14.6224 19.8033 13.3913 21.7024C12.9397 22.3993 11.2991 24.6741 9.04949 24.6447C7.09669 24.6218 5.09633 22.3365 4.48365 21.2974C4.07641 20.6069 3.85399 19.8309 3.72012 19.0213C3.73884 18.9431 3.72691 18.8655 3.68801 18.7988C3.58625 18.0974 3.54112 17.3756 3.50022 16.6632C3.48408 16.3825 3.46809 16.1046 3.44866 15.8319C3.4441 15.7528 3.44156 15.5284 3.43873 15.302C3.43574 15.0609 3.4326 14.8184 3.42766 14.7325C3.33654 13.1599 3.25066 11.6745 4.12622 10.3437C4.49966 9.77588 4.90751 9.2986 5.33811 8.92516C5.58515 8.71106 5.96156 8.43756 6.28518 8.23837C5.5094 7.47104 4.37885 6.06523 3.97271 4.1378C2.26626 5.4855 0.899726 7.92283 0.696417 11.5155C0.648093 12.3704 0.730977 13.6017 1.40051 14.6133C1.51439 14.7853 1.65183 14.9398 1.79722 15.0874C1.81899 15.8076 1.86032 16.6414 1.99254 17.4609C2.10857 18.1802 2.53239 18.8007 3.11599 19.1328C3.2599 20.0005 3.50329 20.8414 3.9558 21.6086C4.65122 22.7879 6.80944 25.2314 9.04231 25.2576C9.05757 25.2577 9.07283 25.2579 9.08809 25.2579C11.6194 25.2579 13.4138 22.7946 13.9057 22.0357C14.6263 20.924 14.932 19.7366 15.0509 18.557C15.052 18.5561 15.0534 18.5559 15.0545 18.5551C15.1296 18.4973 15.7943 17.9746 15.9978 17.4223C16.186 16.9114 16.3319 14.9785 16.3479 14.7598C16.3489 14.7458 16.3437 14.7335 16.3428 14.7199C16.3993 14.6557 16.4559 14.5925 16.5103 14.5192C17.3113 13.4392 17.3129 12.0052 17.3143 10.74L17.3147 10.5163C17.3206 8.90137 16.8916 7.44291 16.0746 6.29894ZM2.59758 17.3634C2.50505 16.7897 2.45968 16.2041 2.43301 15.6561C2.45764 15.6762 2.48221 15.6971 2.50677 15.7171C2.62311 15.8124 2.73581 15.9065 2.84512 16.001C2.86065 16.231 2.87488 16.4628 2.88844 16.6983C2.91788 17.2111 2.94795 17.7292 2.99947 18.2433C2.79663 18.0001 2.65093 17.6942 2.59758 17.3634ZM15.4227 17.2105C15.3679 17.3592 15.2435 17.5226 15.1093 17.6696C15.1304 17.0214 15.1118 16.3826 15.0898 15.7665L15.1918 15.6926C15.3006 15.6066 15.407 15.527 15.5105 15.4496C15.5702 15.405 15.6284 15.3603 15.687 15.3157C15.6184 16.0713 15.5155 16.9588 15.4227 17.2105Z" />
</svg>