<svg xmlns="http://www.w3.org/2000/svg" viewBox="0 0 30 24" fill="inherit">
    <path
        d="M12.908 12.2942C13.25 12.2942 13.5274 12.0169 13.5274 11.6749C13.5274 11.3329 13.25 11.0557 12.908 11.0557C12.5659 11.0557 12.2886 11.3329 12.2886 11.6749C12.2886 12.0169 12.5659 12.2942 12.908 12.2942Z" />
    <path
        d="M18.1329 16.8548C15.187 17.832 13.2605 16.7687 13.2415 16.7576C13.0722 16.6622 12.8567 16.7189 12.759 16.8879C12.6612 17.0573 12.7191 17.2737 12.8885 17.3715C12.9493 17.4064 13.9719 17.9809 15.6691 17.9809C16.4358 17.9809 17.3403 17.8638 18.3559 17.5267C18.5415 17.4652 18.642 17.2647 18.5804 17.0791C18.5191 16.8942 18.3194 16.7939 18.1329 16.8548Z" />
    <path
        d="M19.2727 12.3539C19.6148 12.3539 19.8921 12.0767 19.8921 11.7347C19.8921 11.3927 19.6148 11.1155 19.2727 11.1155C18.9306 11.1155 18.6533 11.3927 18.6533 11.7347C18.6533 12.0767 18.9306 12.3539 19.2727 12.3539Z" />
    <path
        d="M28.968 20.4953L27.3249 19.695C24.924 18.5256 24.8153 16.0869 24.7 13.5051C24.653 12.4533 24.6046 11.3658 24.3805 10.3972C23.618 7.0985 22.4817 4.69057 20.8049 2.81946C18.8809 0.672202 17.2539 0.461214 16.5211 0.50209C17.2512 1.68964 17.2738 3.42066 17.2424 4.18399C17.5007 4.37782 17.7875 4.59939 17.9243 4.70508C18.0052 4.76765 18.0689 4.81673 18.1112 4.84888C18.1321 4.86478 18.1494 4.87792 18.158 4.88414L18.161 4.8863C19.3566 5.7471 20.0169 6.87442 20.3684 8.65366L20.4745 9.19153C20.5175 9.40882 20.5608 9.62884 20.6039 9.85003C18.8038 9.85607 17.1326 10.5249 16.7489 10.6897L15.8542 10.6596C15.5866 10.4923 14.7716 10.0439 13.4196 9.82894C11.8856 9.58421 9.90341 10.1497 9.57219 10.2496L9.40965 10.2573C9.77153 8.43624 11.1314 7.13669 12.2138 6.36568C12.9204 5.86273 13.7476 5.50081 14.5474 5.15065C15.1457 4.88881 15.758 4.62087 16.3365 4.28907C16.4036 4.25053 16.4671 4.20576 16.5333 4.16541C16.568 3.2948 16.538 0.952799 15.2787 0.220369C15.2707 0.215789 15.2664 0.207968 15.2589 0.20287C13.6755 -0.204804 12.1321 0.00164703 10.6573 0.824945C7.34803 2.6722 5.07062 7.35879 4.53161 11.0336C4.37585 12.0951 4.38605 13.1726 4.3959 14.2144C4.40489 15.1692 4.41423 16.1564 4.2927 17.1074C4.06382 18.9035 1.22527 18.8554 1.19675 18.8485C1.09233 18.8499 0.99518 18.8876 0.926204 18.9633C0.856883 19.039 0.823692 19.1409 0.835274 19.2429C1.05275 21.1396 2.19214 22.5672 4.04342 23.263C6.58919 24.2202 10.1528 23.6561 12.1554 22.0194C13.116 22.6507 14.1304 22.9678 15.2477 22.9678C15.9856 22.9678 16.7704 22.8261 17.6114 22.5546C18.1711 22.8833 20.2885 24 23.2171 24C23.451 24 23.6904 23.9927 23.9343 23.9775C27.766 23.7376 29.0785 21.0791 29.1324 20.9661C29.2163 20.7908 29.1428 20.5806 28.968 20.4953ZM20.7383 10.5597C21.1047 10.5653 21.4726 10.6012 21.8296 10.6827C21.8499 11.839 21.6917 12.9417 21.4848 13.0699C21.3883 13.0912 21.2588 13.1109 21.1115 13.1294C20.3221 13.2284 18.9528 13.2873 18.5867 13.3019C18.4661 13.2089 18.0469 12.8017 17.2978 11.2327C17.9181 10.9963 19.315 10.5377 20.7383 10.5597ZM13.3083 10.5279C14.2968 10.6852 14.9543 10.9755 15.2845 11.1507C14.8458 12.0347 14.1894 12.8714 13.9569 13.155C12.4685 13.333 10.8233 12.9528 10.4837 12.7886C10.3925 12.535 10.1989 11.6394 10.0507 10.8514C10.6854 10.6837 12.1705 10.3474 13.3083 10.5279ZM20.5008 18.1731C20.4177 18.3618 20.3265 18.5496 20.2283 18.735C20.1963 18.7957 20.1592 18.8543 20.1256 18.9144C20.0565 19.0381 19.9886 19.1624 19.9138 19.2833C19.8707 19.3529 19.823 19.4191 19.7782 19.4876C19.7074 19.5957 19.6382 19.7052 19.5634 19.8101C19.5123 19.8817 19.4572 19.9489 19.4044 20.0188C19.3312 20.1158 19.2594 20.2146 19.1834 20.3077C19.1267 20.3772 19.0669 20.441 19.0088 20.508C18.9327 20.5958 18.8578 20.6858 18.7798 20.7691C18.7191 20.8338 18.6564 20.8916 18.5947 20.9533C18.5163 21.0317 18.4387 21.1129 18.359 21.1862C18.2953 21.2446 18.2305 21.2954 18.1662 21.3503C18.0866 21.4183 18.0074 21.4894 17.9272 21.5515C17.8618 21.6022 17.796 21.6442 17.7303 21.6907C17.654 21.7449 17.5777 21.802 17.5013 21.8502C15.4384 22.5425 13.8444 22.3697 12.3392 21.2917C11.6855 20.8233 10.9512 20.2695 10.4602 19.7102C9.40814 18.5125 8.86636 16.8498 8.84959 14.7682C8.8395 13.495 9.04336 12.2189 9.27392 10.9725L9.35215 10.9688C9.59788 12.2815 9.7859 13.0416 9.9105 13.2217C10.1555 13.5746 11.7046 13.9061 13.146 13.9061C13.5083 13.9061 13.8641 13.885 14.1904 13.8384C14.275 13.8263 14.3523 13.7837 14.4081 13.7191C14.4488 13.672 15.3248 12.6504 15.9019 11.502L16.3437 14.5985L15.0083 14.8868C14.8171 14.9279 14.6956 15.1163 14.7369 15.3075C14.7727 15.4734 14.9194 15.5868 15.0826 15.5868C15.1074 15.5868 15.1326 15.5843 15.1577 15.5788L16.8155 15.221C16.9972 15.182 17.1175 15.0088 17.0912 14.8249L16.606 11.4252C17.3759 13.0598 18.0166 13.9535 18.463 14.0102C18.4777 14.0119 18.4925 14.0129 18.5074 14.0129C18.5115 14.0129 18.5157 14.0129 18.5198 14.0126C18.6003 14.01 20.1983 13.9522 21.161 13.8357C21.2363 15.3425 21.0935 16.826 20.5008 18.1731Z" />
</svg>