<svg xmlns="http://www.w3.org/2000/svg" viewBox="0 0 20 28" fill="inherit">
    <path
        d="M17.1003 16.7382C16.6358 15.8756 16.7685 14.283 16.7685 14.283C16.7996 13.5885 16.8045 12.8922 16.8023 12.1971C16.7946 9.78238 16.7185 7.28105 16.1246 4.92917C15.4072 2.08826 12.9134 0.322735 10.0103 0.293316C10.0069 0.293334 10.0035 0.292813 10.0001 0.29285C9.99671 0.292813 9.99332 0.293092 9.98992 0.293074C7.08682 0.322493 4.593 2.08826 3.87561 4.92917C3.28171 7.28105 3.20561 9.78239 3.1979 12.1971C3.1957 12.8922 3.20063 13.5885 3.23174 14.283C3.23174 14.283 3.36445 15.8756 2.89994 16.7382C2.43546 17.6008 0.395013 20.2785 0.660432 21.2738C0.660432 21.2738 2.33688 27.6654 9.98992 27.7065V27.7071C9.9934 27.7071 9.99663 27.7069 10.0001 27.7068C10.0036 27.7069 10.0068 27.7071 10.0103 27.7071V27.7065C17.6633 27.6654 19.3398 21.2738 19.3398 21.2738C19.6052 20.2785 17.5648 17.6008 17.1003 16.7382ZM12.6702 18.6972C10.4661 20.3455 7.52697 19.235 5.92937 17.2578C4.73749 15.7827 4.61982 13.8137 4.54804 11.9594C4.62339 10.6167 4.76317 9.25447 5.05098 7.94015C6.06592 3.30526 13.2805 2.82982 14.6717 7.49444C15.1095 8.96238 15.4262 10.6305 15.4317 12.2688C15.44 14.7438 14.738 17.1509 12.6702 18.6972Z" />
    <path
        d="M8.71445 9.96192C8.87753 10.0099 9.04735 9.91718 9.09508 9.75485C9.14295 9.59251 9.05034 9.4221 8.88801 9.37422C7.57063 8.98507 6.51106 8.993 5.55366 9.39861C5.39791 9.46459 5.32505 9.64443 5.39103 9.80033C5.44055 9.91718 5.55396 9.98735 5.67335 9.98735C5.71315 9.98735 5.7537 9.97942 5.79275 9.96296C6.61234 9.6157 7.54071 9.61525 8.71445 9.96192Z" />
    <path
        d="M14.3419 9.39C13.3042 8.91348 12.0012 9.1195 11.1705 9.53528C9.57771 10.3326 9.60823 12.53 9.62843 13.9841C9.63038 14.1292 9.63232 14.2661 9.63232 14.3923V14.6338L9.86722 14.6902C9.89206 14.6961 10.2894 14.7895 10.7999 14.7895C11.065 14.7895 11.3605 14.7644 11.6503 14.6888C11.814 14.646 11.9122 14.4786 11.8695 14.3149C11.8267 14.1512 11.6592 14.0526 11.4956 14.0957C11.0311 14.2169 10.5285 14.1767 10.2434 14.1357C10.2426 14.0836 10.2419 14.0302 10.2411 13.9756C10.2232 12.6745 10.1959 10.7084 11.4449 10.0832C12.1218 9.7443 13.2372 9.55683 14.0861 9.94688C14.2402 10.0177 14.422 9.95017 14.4925 9.79637C14.5631 9.64256 14.4957 9.46062 14.3419 9.39Z" />
    <path
        d="M7.37173 11.4299C7.62557 11.4299 7.83135 11.2241 7.83135 10.9702C7.83135 10.7164 7.62557 10.5106 7.37173 10.5106C7.11789 10.5106 6.91211 10.7164 6.91211 10.9702C6.91211 11.2241 7.11789 11.4299 7.37173 11.4299Z" />
    <path
        d="M12.7526 11.4299C13.0064 11.4299 13.2122 11.2241 13.2122 10.9702C13.2122 10.7164 13.0064 10.5106 12.7526 10.5106C12.4987 10.5106 12.293 10.7164 12.293 10.9702C12.293 11.2241 12.4987 11.4299 12.7526 11.4299Z" />
    <path
        d="M11.883 15.6169C10.1936 16.0567 8.56439 15.6223 8.54793 15.6179C8.38545 15.5735 8.21638 15.6694 8.17164 15.8325C8.12691 15.9955 8.22266 16.164 8.38574 16.2089C8.43362 16.2221 9.2025 16.4285 10.2527 16.4285C10.7931 16.4285 11.408 16.3739 12.0374 16.21C12.2013 16.1673 12.2994 15.9999 12.2568 15.8362C12.2141 15.6725 12.0478 15.5739 11.883 15.6169Z" />
</svg>