<svg xmlns="http://www.w3.org/2000/svg" viewBox="0 0 24 26" fill="inherit">
    <path
        d="M18.9609 12.1178C19.0099 12.1178 19.0598 12.1054 19.1056 12.0795C19.2467 11.9994 19.296 11.8201 19.2157 11.6792C19.1982 11.6481 18.7731 10.9148 17.8609 10.5739C16.9453 10.2318 15.3646 11.0105 15.1874 11.1007C15.043 11.1742 14.9853 11.3508 15.0587 11.4954C15.1321 11.6397 15.3081 11.6972 15.4535 11.6241C15.8428 11.4263 17.082 10.9103 17.6557 11.1239C18.3614 11.3878 18.7026 11.9645 18.7054 11.9693C18.7593 12.0644 18.8588 12.1178 18.9609 12.1178Z" />
    <path
        d="M16.6632 13.0741C16.9369 13.0741 17.1588 12.8522 17.1588 12.5784C17.1588 12.3047 16.9369 12.0828 16.6632 12.0828C16.3894 12.0828 16.1675 12.3047 16.1675 12.5784C16.1675 12.8522 16.3894 13.0741 16.6632 13.0741Z" />
    <path
        d="M11.4659 12.9966C11.7397 12.9966 11.9616 12.7747 11.9616 12.5009C11.9616 12.2272 11.7397 12.0052 11.4659 12.0052C11.1921 12.0052 10.9702 12.2272 10.9702 12.5009C10.9702 12.7747 11.1921 12.9966 11.4659 12.9966Z" />
    <path
        d="M11.8466 17.6021C11.9126 17.6349 12.9761 18.1507 14.396 18.1507C15.1129 18.1507 15.921 18.0192 16.7369 17.6271C16.8831 17.5569 16.9447 17.3816 16.8745 17.2354C16.8043 17.0895 16.6294 17.0276 16.4829 17.098C14.3148 18.139 12.129 17.0866 12.1072 17.076C11.9616 17.0048 11.7858 17.0641 11.7142 17.2092C11.6422 17.3544 11.7016 17.5301 11.8466 17.6021Z" />
    <path
        d="M13.5248 3.27337C12.9088 2.23285 11.3965 1.84728 10.0765 1.90455C7.61668 3.17599 5.64608 5.77704 4.20898 9.66077C3.35557 11.967 2.7441 14.5257 2.33875 17.4831L2.27196 17.9744C1.96981 20.1993 1.65734 22.4999 0.836325 24.612L0.680664 25.0119H2.23365C3.49005 23.1303 4.12169 19.4787 4.07654 16.8583C4.07367 16.6962 4.20296 16.5626 4.36493 16.5597C4.52403 16.5653 4.66077 16.6861 4.66363 16.8483C4.70866 19.4803 4.1233 22.9523 2.92415 25.0119H4.99226C5.66898 23.2139 6.29284 21.3438 6.29994 19.2579L6.29965 19.0181C6.29736 18.3763 6.28331 17.7356 6.26898 17.0959C6.21365 14.5734 6.15603 11.9649 6.85722 9.4204C7.70662 6.33785 9.40226 4.44842 11.6323 4.10012C11.7936 4.07532 11.9427 4.18483 11.9677 4.34479C11.9926 4.5049 11.8831 4.65511 11.7228 4.68005C9.17436 5.07823 7.97809 7.5625 7.4231 9.57634C6.76583 11.9618 6.79645 14.3373 6.85088 16.843C6.8598 16.8623 6.8717 16.8797 6.87643 16.9013C7.02311 17.575 8.21895 23.1403 8.11894 25.0119H12.1058L11.9513 24.6124C11.6574 23.8528 11.3381 21.8984 11.1729 20.822C12.1038 21.4263 13.2354 21.7378 14.3622 21.7378C15.5395 21.7378 16.7083 21.4027 17.6256 20.7222C17.7558 20.6255 17.783 20.4416 17.6864 20.3115C17.5895 20.1811 17.4055 20.1538 17.2759 20.2506C15.5406 21.5384 12.6743 21.4119 10.9972 19.9628L10.9686 19.9378C10.2173 19.2831 9.50145 18.5509 9.35296 17.6353C9.28272 17.2024 9.27498 16.7674 9.26667 16.3067C9.26323 16.1175 9.25979 15.9282 9.25176 15.7393C9.20457 14.6205 9.22935 13.5105 9.27835 12.4419C9.32468 12.4163 9.36689 12.3826 9.39452 12.3331C9.53126 12.0881 10.0169 11.4169 10.6134 11.2529C11.1349 11.1094 11.9464 11.2425 12.5 11.563C12.7468 11.7059 13.0607 11.9525 13.1548 12.3159C13.3792 13.1854 13.1487 14.7136 12.8013 15.5415C12.7663 15.6249 12.7718 15.7199 12.8159 15.7989C12.8603 15.8779 12.9389 15.9319 13.0283 15.9453L14.9854 16.2388C15.0003 16.2411 15.0149 16.2421 15.0293 16.2421C15.1723 16.2421 15.2976 16.1376 15.3194 15.9921C15.3435 15.8317 15.2328 15.6822 15.0726 15.6583L13.4724 15.4182C13.7851 14.4665 13.958 13.0791 13.7229 12.1691C13.6085 11.7258 13.2875 11.3405 12.7941 11.0548C12.0972 10.6512 11.1357 10.5001 10.4578 10.6868C9.98624 10.8164 9.60223 11.1394 9.33104 11.4383C9.33473 11.3749 9.33773 11.309 9.34149 11.246C9.37503 10.6836 9.43638 10.028 9.63905 9.43057C9.97884 8.42887 11.1441 7.38706 12.6715 6.84151C13.7433 5.32955 14.0318 4.13004 13.5248 3.27337Z" />
    <path
        d="M23.1811 9.64589C22.9362 8.98113 22.6922 8.56709 22.4888 8.30803C22.0226 9.2984 21.1602 9.82372 21.1105 9.85315C21.0635 9.88096 21.0119 9.89415 20.9612 9.89415C20.8608 9.89415 20.7631 9.84269 20.7083 9.75009C20.6258 9.61077 20.6716 9.43089 20.8109 9.34819C20.8323 9.33541 21.9809 8.62569 22.1678 7.3559C22.166 7.29716 22.1643 7.254 22.1629 7.2416C22.0783 6.47405 21.8966 5.76584 21.6225 5.13645C21.273 4.33421 20.7347 3.62127 20.0421 3.01941C20.2364 3.58606 20.3582 4.27975 20.2127 5.01534C20.0086 6.04684 19.3227 6.9253 18.1841 7.63482C18.8878 8.37934 19.2672 9.45284 19.6588 10.7593C19.6721 10.8767 19.729 11.4033 19.7686 12.1146C19.7945 13.0598 19.8025 14.3818 19.7414 15.0145L19.723 15.2045C19.6803 15.6494 19.6362 16.1094 19.5639 16.5513C19.4719 17.1159 19.3478 17.5717 19.1735 17.9859C18.7057 19.0982 18.595 20.0382 18.8149 21.0336C18.8151 21.0347 18.8158 21.0356 18.8161 21.0366C18.8632 21.2738 19.3064 23.4938 19.5943 24.2858C19.6376 24.405 19.7503 24.4791 19.8701 24.4791C19.9034 24.4791 19.9372 24.4734 19.9704 24.4613C20.1227 24.4059 20.2015 24.2375 20.1459 24.0851C19.8875 23.3743 19.4719 21.3222 19.3996 20.9597C19.4651 20.3255 19.8728 19.8425 20.4357 19.1799C20.6576 18.9188 20.909 18.6228 21.159 18.2897C21.9985 17.1703 22.1409 14.4695 22.1639 13.7783C22.3417 13.401 22.4929 12.9872 22.5054 12.5662C22.8465 12.1146 23.6363 10.8811 23.1811 9.64589ZM21.6227 13.5507C21.6179 13.5588 21.6108 13.5649 21.6067 13.5735C21.5239 13.751 21.4413 13.9098 21.3797 14.0255C21.1687 14.4205 20.9804 14.7816 20.8072 15.2009C20.7234 15.4042 20.528 15.8024 20.222 16.07C20.2543 15.7983 20.2819 15.5265 20.3076 15.2606L20.3256 15.0711C20.3536 14.7813 20.3669 14.3839 20.3721 13.9725C20.3759 13.9656 20.3814 13.9602 20.3847 13.9529C20.5369 13.6145 21.0873 13.1842 21.2865 13.0469C21.4198 12.9549 21.4537 12.7722 21.3616 12.6387C21.2702 12.5053 21.0873 12.4719 20.9537 12.5632C20.9047 12.5969 20.6393 12.7853 20.3726 13.0391C20.3724 13.0183 20.3723 12.9961 20.3721 12.9757C20.3704 12.8288 20.3683 12.6927 20.3661 12.5708C20.3636 12.4348 20.3611 12.3167 20.3589 12.2266C20.5848 12.0592 21.0334 11.8631 21.2916 11.8659C21.3161 11.8662 21.3412 11.8658 21.3619 11.8699C21.5143 11.9003 21.6584 12.0136 21.763 12.1407C21.8575 12.2558 21.9198 12.3821 21.9226 12.4701C21.934 12.8158 21.7932 13.1941 21.6227 13.5507Z" />
    <path
        d="M6.86875 19.84C6.76702 21.7105 6.2211 23.3935 5.61816 25.0118H7.53409C7.60336 24.1131 7.24253 21.8404 6.86875 19.84Z" />
    <path
        d="M19.6369 4.90136C19.8528 3.80987 19.3561 2.79119 19.06 2.30422C18.5513 1.99485 17.9877 1.73312 17.3763 1.52405C17.8437 2.10136 18.092 2.80404 18.062 3.52162C18.0107 4.75274 16.9265 5.90943 16.1475 6.58738C16.3396 6.62771 16.5323 6.67713 16.7249 6.73761C17.1112 6.85895 17.4374 7.02611 17.7219 7.23045C18.8104 6.59261 19.457 5.81033 19.6369 4.90136Z" />
    <path
        d="M17.4756 3.49735C17.5054 2.77781 17.1863 2.06945 16.5998 1.55416C16.4335 1.40809 16.2516 1.28371 16.0587 1.17972C14.4457 0.867988 12.7417 0.935911 11.312 1.393C12.422 1.56775 13.484 2.052 14.0301 2.97446C14.5916 3.92289 14.4241 5.13863 13.536 6.59731C14.1156 6.4747 14.7299 6.42706 15.3585 6.47578C16.0083 5.9694 17.4243 4.72937 17.4756 3.49735Z" />
</svg>